0
SECTION
2
HEADER
9
$ACADVER
1
AC1006
0
ENDSEC
0
SECTION
2
TABLES
0
TABLE
2
LAYER
70
12
0
LAYER
70
0
62
1
6
CONTINUOUS
2
L0D0_0
0
LAYER
70
0
62
2
6
CONTINUOUS
2
L2D0_DIFF
0
LAYER
70
0
62
3
6
CONTINUOUS
2
L4D0_DIFFCONT
0
LAYER
70
0
62
4
6
CONTINUOUS
2
L6D0_METAL1
0
LAYER
70
0
62
5
6
CONTINUOUS
2
L3D0_POLY
0
LAYER
70
0
62
6
6
CONTINUOUS
2
L8D0_METAL2
0
LAYER
70
0
62
7
6
CONTINUOUS
2
L1D0_NWELL
0
LAYER
70
0
62
8
6
CONTINUOUS
2
L5D0_POLYCONT
0
LAYER
70
0
62
9
6
CONTINUOUS
2
L7D0_VIA1
0
LAYER
70
0
62
10
6
CONTINUOUS
2
L3D1_POLY*LABEL
0
LAYER
70
0
62
11
6
CONTINUOUS
2
L6D1
0
LAYER
70
0
62
12
6
CONTINUOUS
2
L8D1
0
ENDTAB
0
ENDSEC
0
SECTION
2
BLOCKS
0
BLOCK
2
TRANS
70
0
10
0
20
0
0
POLYLINE
8
L2D0_DIFF
70
1
40
0
41
0
66
1
0
VERTEX
8
L2D0_DIFF
10
-0.65
20
-0.475
0
VERTEX
8
L2D0_DIFF
10
-0.65
20
0.475
0
VERTEX
8
L2D0_DIFF
10
0.65
20
0.475
0
VERTEX
8
L2D0_DIFF
10
0.65
20
-0.475
0
SEQEND
0
POLYLINE
8
L4D0_DIFFCONT
70
1
40
0
41
0
66
1
0
VERTEX
8
L4D0_DIFFCONT
10
-0.51
20
-0.31
0
VERTEX
8
L4D0_DIFFCONT
10
-0.51
20
-0.09
0
VERTEX
8
L4D0_DIFFCONT
10
-0.29
20
-0.09
0
VERTEX
8
L4D0_DIFFCONT
10
-0.29
20
-0.31
0
SEQEND
0
POLYLINE
8
L4D0_DIFFCONT
70
1
40
0
41
0
66
1
0
VERTEX
8
L4D0_DIFFCONT
10
-0.51
20
-0.31
0
VERTEX
8
L4D0_DIFFCONT
10
-0.51
20
-0.09
0
VERTEX
8
L4D0_DIFFCONT
10
-0.29
20
-0.09
0
VERTEX
8
L4D0_DIFFCONT
10
-0.29
20
-0.31
0
SEQEND
0
POLYLINE
8
L4D0_DIFFCONT
70
1
40
0
41
0
66
1
0
SEQEND
0
POLYLINE
8
L4D0_DIFFCONT
70
1
40
0
41
0
66
1
0
SEQEND
0
POLYLINE
8
L4D0_DIFFCONT
70
1
40
0
41
0
66
1
0
SEQEND
0
POLYLINE
8
L4D0_DIFFCONT
70
1
40
0
41
0
66
1
0
SEQEND
0
POLYLINE
8
L4D0_DIFFCONT
70
1
40
0
41
0
66
1
0
VERTEX
8
L4D0_DIFFCONT
10
0.29
20
-0.31
0
VERTEX
8
L4D0_DIFFCONT
10
0.29
20
-0.09
0
VERTEX
8
L4D0_DIFFCONT
10
0.51
20
-0.09
0
VERTEX
8
L4D0_DIFFCONT
10
0.51
20
-0.31
0
SEQEND
0
POLYLINE
8
L4D0_DIFFCONT
70
1
40
0
41
0
66
1
0
VERTEX
8
L4D0_DIFFCONT
10
0.29
20
-0.31
0
VERTEX
8
L4D0_DIFFCONT
10
0.29
20
-0.09
0
VERTEX
8
L4D0_DIFFCONT
10
0.51
20
-0.09
0
VERTEX
8
L4D0_DIFFCONT
10
0.51
20
-0.31
0
SEQEND
0
POLYLINE
8
L4D0_DIFFCONT
70
1
40
0
41
0
66
1
0
SEQEND
0
POLYLINE
8
L4D0_DIFFCONT
70
1
40
0
41
0
66
1
0
SEQEND
0
POLYLINE
8
L4D0_DIFFCONT
70
1
40
0
41
0
66
1
0
SEQEND
0
POLYLINE
8
L4D0_DIFFCONT
70
1
40
0
41
0
66
1
0
SEQEND
0
POLYLINE
8
L4D0_DIFFCONT
70
1
40
0
41
0
66
1
0
VERTEX
8
L4D0_DIFFCONT
10
-0.51
20
0.09
0
VERTEX
8
L4D0_DIFFCONT
10
-0.51
20
0.31
0
VERTEX
8
L4D0_DIFFCONT
10
-0.29
20
0.31
0
VERTEX
8
L4D0_DIFFCONT
10
-0.29
20
0.09
0
SEQEND
0
POLYLINE
8
L4D0_DIFFCONT
70
1
40
0
41
0
66
1
0
VERTEX
8
L4D0_DIFFCONT
10
-0.51
20
0.09
0
VERTEX
8
L4D0_DIFFCONT
10
-0.51
20
0.31
0
VERTEX
8
L4D0_DIFFCONT
10
-0.29
20
0.31
0
VERTEX
8
L4D0_DIFFCONT
10
-0.29
20
0.09
0
SEQEND
0
POLYLINE
8
L4D0_DIFFCONT
70
1
40
0
41
0
66
1
0
SEQEND
0
POLYLINE
8
L4D0_DIFFCONT
70
1
40
0
41
0
66
1
0
SEQEND
0
POLYLINE
8
L4D0_DIFFCONT
70
1
40
0
41
0
66
1
0
SEQEND
0
POLYLINE
8
L4D0_DIFFCONT
70
1
40
0
41
0
66
1
0
SEQEND
0
POLYLINE
8
L4D0_DIFFCONT
70
1
40
0
41
0
66
1
0
VERTEX
8
L4D0_DIFFCONT
10
0.29
20
0.09
0
VERTEX
8
L4D0_DIFFCONT
10
0.29
20
0.31
0
VERTEX
8
L4D0_DIFFCONT
10
0.51
20
0.31
0
VERTEX
8
L4D0_DIFFCONT
10
0.51
20
0.09
0
SEQEND
0
POLYLINE
8
L4D0_DIFFCONT
70
1
40
0
41
0
66
1
0
VERTEX
8
L4D0_DIFFCONT
10
0.29
20
0.09
0
VERTEX
8
L4D0_DIFFCONT
10
0.29
20
0.31
0
VERTEX
8
L4D0_DIFFCONT
10
0.51
20
0.31
0
VERTEX
8
L4D0_DIFFCONT
10
0.51
20
0.09
0
SEQEND
0
POLYLINE
8
L4D0_DIFFCONT
70
1
40
0
41
0
66
1
0
SEQEND
0
POLYLINE
8
L4D0_DIFFCONT
70
1
40
0
41
0
66
1
0
SEQEND
0
POLYLINE
8
L4D0_DIFFCONT
70
1
40
0
41
0
66
1
0
SEQEND
0
POLYLINE
8
L4D0_DIFFCONT
70
1
40
0
41
0
66
1
0
SEQEND
0
POLYLINE
8
L6D0_METAL1
70
1
40
0
41
0
66
1
0
VERTEX
8
L6D0_METAL1
10
-0.58
20
-0.38
0
VERTEX
8
L6D0_METAL1
10
-0.58
20
0.38
0
VERTEX
8
L6D0_METAL1
10
-0.22
20
0.38
0
VERTEX
8
L6D0_METAL1
10
-0.22
20
-0.38
0
SEQEND
0
POLYLINE
8
L6D0_METAL1
70
1
40
0
41
0
66
1
0
VERTEX
8
L6D0_METAL1
10
-0.58
20
-0.38
0
VERTEX
8
L6D0_METAL1
10
-0.58
20
0.38
0
VERTEX
8
L6D0_METAL1
10
-0.22
20
0.38
0
VERTEX
8
L6D0_METAL1
10
-0.22
20
-0.38
0
SEQEND
0
POLYLINE
8
L6D0_METAL1
70
1
40
0
41
0
66
1
0
SEQEND
0
POLYLINE
8
L6D0_METAL1
70
1
40
0
41
0
66
1
0
SEQEND
0
POLYLINE
8
L6D0_METAL1
70
1
40
0
41
0
66
1
0
SEQEND
0
POLYLINE
8
L6D0_METAL1
70
1
40
0
41
0
66
1
0
SEQEND
0
POLYLINE
8
L6D0_METAL1
70
1
40
0
41
0
66
1
0
VERTEX
8
L6D0_METAL1
10
0.22
20
-0.38
0
VERTEX
8
L6D0_METAL1
10
0.22
20
0.38
0
VERTEX
8
L6D0_METAL1
10
0.58
20
0.38
0
VERTEX
8
L6D0_METAL1
10
0.58
20
-0.38
0
SEQEND
0
POLYLINE
8
L6D0_METAL1
70
1
40
0
41
0
66
1
0
VERTEX
8
L6D0_METAL1
10
0.22
20
-0.38
0
VERTEX
8
L6D0_METAL1
10
0.22
20
0.38
0
VERTEX
8
L6D0_METAL1
10
0.58
20
0.38
0
VERTEX
8
L6D0_METAL1
10
0.58
20
-0.38
0
SEQEND
0
POLYLINE
8
L6D0_METAL1
70
1
40
0
41
0
66
1
0
SEQEND
0
POLYLINE
8
L6D0_METAL1
70
1
40
0
41
0
66
1
0
SEQEND
0
POLYLINE
8
L6D0_METAL1
70
1
40
0
41
0
66
1
0
SEQEND
0
POLYLINE
8
L6D0_METAL1
70
1
40
0
41
0
66
1
0
SEQEND
0
POLYLINE
8
L3D0_POLY
70
1
40
0
41
0
66
1
0
VERTEX
8
L3D0_POLY
10
-0.125
20
-0.8
0
VERTEX
8
L3D0_POLY
10
-0.125
20
0.8
0
VERTEX
8
L3D0_POLY
10
0.125
20
0.8
0
VERTEX
8
L3D0_POLY
10
0.125
20
-0.8
0
SEQEND
0
POLYLINE
8
L3D0_POLY
70
1
40
0
41
0
66
1
0
VERTEX
8
L3D0_POLY
10
-0.125
20
-0.8
0
VERTEX
8
L3D0_POLY
10
-0.125
20
0.8
0
VERTEX
8
L3D0_POLY
10
0.125
20
0.8
0
VERTEX
8
L3D0_POLY
10
0.125
20
-0.8
0
SEQEND
0
POLYLINE
8
L3D0_POLY
70
1
40
0
41
0
66
1
0
SEQEND
0
POLYLINE
8
L3D0_POLY
70
1
40
0
41
0
66
1
0
SEQEND
0
POLYLINE
8
L3D0_POLY
70
1
40
0
41
0
66
1
0
SEQEND
0
POLYLINE
8
L3D0_POLY
70
1
40
0
41
0
66
1
0
SEQEND
0
ENDBLK
0
BLOCK
2
INV2
70
0
10
0
20
0
0
INSERT
8
0
2
TRANS
10
0.4
20
0
41
1
42
-1
50
0
0
INSERT
8
0
2
TRANS
10
0.4
20
2.8
41
1
42
-1
50
0
0
INSERT
8
0
2
TRANS
10
-0.4
20
0
41
1
42
1
50
0
0
INSERT
8
0
2
TRANS
10
-0.4
20
2.8
41
1
42
1
50
0
0
POLYLINE
8
L6D0_METAL1
70
1
40
0
41
0
66
1
0
VERTEX
8
L6D0_METAL1
10
0.8
20
0.02
0
VERTEX
8
L6D0_METAL1
10
0.8
20
0.38
0
VERTEX
8
L6D0_METAL1
10
1.3
20
0.38
0
VERTEX
8
L6D0_METAL1
10
1.3
20
0.02
0
SEQEND
0
POLYLINE
8
L6D0_METAL1
70
1
40
0
41
0
66
1
0
VERTEX
8
L6D0_METAL1
10
0.8
20
0.02
0
VERTEX
8
L6D0_METAL1
10
0.8
20
0.38
0
VERTEX
8
L6D0_METAL1
10
1.3
20
0.38
0
VERTEX
8
L6D0_METAL1
10
1.3
20
0.02
0
SEQEND
0
POLYLINE
8
L6D0_METAL1
70
1
40
0
41
0
66
1
0
VERTEX
8
L6D0_METAL1
10
0.94
20
0.38
0
VERTEX
8
L6D0_METAL1
10
0.94
20
1.62
0
VERTEX
8
L6D0_METAL1
10
1.3
20
1.62
0
VERTEX
8
L6D0_METAL1
10
1.3
20
0.38
0
SEQEND
0
POLYLINE
8
L6D0_METAL1
70
1
40
0
41
0
66
1
0
VERTEX
8
L6D0_METAL1
10
0.94
20
0.38
0
VERTEX
8
L6D0_METAL1
10
0.94
20
1.62
0
VERTEX
8
L6D0_METAL1
10
1.3
20
1.62
0
VERTEX
8
L6D0_METAL1
10
1.3
20
0.38
0
SEQEND
0
POLYLINE
8
L6D0_METAL1
70
1
40
0
41
0
66
1
0
VERTEX
8
L6D0_METAL1
10
0.62
20
1.62
0
VERTEX
8
L6D0_METAL1
10
0.62
20
1.98
0
VERTEX
8
L6D0_METAL1
10
1.3
20
1.98
0
VERTEX
8
L6D0_METAL1
10
1.3
20
1.62
0
SEQEND
0
POLYLINE
8
L6D0_METAL1
70
1
40
0
41
0
66
1
0
VERTEX
8
L6D0_METAL1
10
0.62
20
1.62
0
VERTEX
8
L6D0_METAL1
10
0.62
20
1.98
0
VERTEX
8
L6D0_METAL1
10
1.3
20
1.98
0
VERTEX
8
L6D0_METAL1
10
1.3
20
1.62
0
SEQEND
0
POLYLINE
8
L6D0_METAL1
70
1
40
0
41
0
66
1
0
VERTEX
8
L6D0_METAL1
10
0.62
20
1.98
0
VERTEX
8
L6D0_METAL1
10
0.62
20
2.42
0
VERTEX
8
L6D0_METAL1
10
0.98
20
2.42
0
VERTEX
8
L6D0_METAL1
10
0.98
20
1.98
0
SEQEND
0
POLYLINE
8
L6D0_METAL1
70
1
40
0
41
0
66
1
0
VERTEX
8
L6D0_METAL1
10
0.62
20
1.98
0
VERTEX
8
L6D0_METAL1
10
0.62
20
2.42
0
VERTEX
8
L6D0_METAL1
10
0.98
20
2.42
0
VERTEX
8
L6D0_METAL1
10
0.98
20
1.98
0
SEQEND
0
POLYLINE
8
L6D0_METAL1
70
1
40
0
41
0
66
1
0
SEQEND
0
POLYLINE
8
L6D0_METAL1
70
1
40
0
41
0
66
1
0
SEQEND
0
POLYLINE
8
L6D0_METAL1
70
1
40
0
41
0
66
1
0
SEQEND
0
POLYLINE
8
L6D0_METAL1
70
1
40
0
41
0
66
1
0
SEQEND
0
POLYLINE
8
L6D0_METAL1
70
1
40
0
41
0
66
1
0
SEQEND
0
POLYLINE
8
L6D0_METAL1
70
1
40
0
41
0
66
1
0
SEQEND
0
POLYLINE
8
L6D0_METAL1
70
1
40
0
41
0
66
1
0
SEQEND
0
POLYLINE
8
L6D0_METAL1
70
1
40
0
41
0
66
1
0
SEQEND
0
POLYLINE
8
L6D0_METAL1
70
1
40
0
41
0
66
1
0
SEQEND
0
POLYLINE
8
L6D0_METAL1
70
1
40
0
41
0
66
1
0
SEQEND
0
POLYLINE
8
L6D0_METAL1
70
1
40
0
41
0
66
1
0
VERTEX
8
L6D0_METAL1
10
-0.98
20
-0.42
0
VERTEX
8
L6D0_METAL1
10
-0.98
20
2.42
0
VERTEX
8
L6D0_METAL1
10
-0.62
20
2.42
0
VERTEX
8
L6D0_METAL1
10
-0.62
20
-0.42
0
SEQEND
0
POLYLINE
8
L6D0_METAL1
70
1
40
0
41
0
66
1
0
VERTEX
8
L6D0_METAL1
10
-0.98
20
-0.42
0
VERTEX
8
L6D0_METAL1
10
-0.98
20
2.42
0
VERTEX
8
L6D0_METAL1
10
-0.62
20
2.42
0
VERTEX
8
L6D0_METAL1
10
-0.62
20
-0.42
0
SEQEND
0
POLYLINE
8
L6D0_METAL1
70
1
40
0
41
0
66
1
0
SEQEND
0
POLYLINE
8
L6D0_METAL1
70
1
40
0
41
0
66
1
0
SEQEND
0
POLYLINE
8
L6D0_METAL1
70
1
40
0
41
0
66
1
0
SEQEND
0
POLYLINE
8
L6D0_METAL1
70
1
40
0
41
0
66
1
0
SEQEND
0
POLYLINE
8
L6D0_METAL1
70
1
40
0
41
0
66
1
0
VERTEX
8
L6D0_METAL1
10
-0.8
20
0.82
0
VERTEX
8
L6D0_METAL1
10
-0.8
20
1.18
0
VERTEX
8
L6D0_METAL1
10
0.58
20
1.18
0
VERTEX
8
L6D0_METAL1
10
0.58
20
0.82
0
SEQEND
0
POLYLINE
8
L6D0_METAL1
70
1
40
0
41
0
66
1
0
VERTEX
8
L6D0_METAL1
10
-0.8
20
0.82
0
VERTEX
8
L6D0_METAL1
10
-0.8
20
1.18
0
VERTEX
8
L6D0_METAL1
10
0.58
20
1.18
0
VERTEX
8
L6D0_METAL1
10
0.58
20
0.82
0
SEQEND
0
POLYLINE
8
L6D0_METAL1
70
1
40
0
41
0
66
1
0
SEQEND
0
POLYLINE
8
L6D0_METAL1
70
1
40
0
41
0
66
1
0
SEQEND
0
POLYLINE
8
L6D0_METAL1
70
1
40
0
41
0
66
1
0
SEQEND
0
POLYLINE
8
L6D0_METAL1
70
1
40
0
41
0
66
1
0
SEQEND
0
POLYLINE
8
L3D0_POLY
70
1
40
0
41
0
66
1
0
VERTEX
8
L3D0_POLY
10
0.22
20
0.82
0
VERTEX
8
L3D0_POLY
10
0.22
20
1.18
0
VERTEX
8
L3D0_POLY
10
0.58
20
1.18
0
VERTEX
8
L3D0_POLY
10
0.58
20
0.82
0
SEQEND
0
POLYLINE
8
L3D0_POLY
70
1
40
0
41
0
66
1
0
VERTEX
8
L3D0_POLY
10
0.22
20
0.82
0
VERTEX
8
L3D0_POLY
10
0.22
20
1.18
0
VERTEX
8
L3D0_POLY
10
0.58
20
1.18
0
VERTEX
8
L3D0_POLY
10
0.58
20
0.82
0
SEQEND
0
POLYLINE
8
L3D0_POLY
70
1
40
0
41
0
66
1
0
SEQEND
0
POLYLINE
8
L3D0_POLY
70
1
40
0
41
0
66
1
0
SEQEND
0
POLYLINE
8
L3D0_POLY
70
1
40
0
41
0
66
1
0
SEQEND
0
POLYLINE
8
L3D0_POLY
70
1
40
0
41
0
66
1
0
SEQEND
0
POLYLINE
8
L3D0_POLY
70
1
40
0
41
0
66
1
0
VERTEX
8
L3D0_POLY
10
-0.525
20
-0.25
0
VERTEX
8
L3D0_POLY
10
-0.525
20
2.25
0
VERTEX
8
L3D0_POLY
10
-0.275
20
2.25
0
VERTEX
8
L3D0_POLY
10
-0.275
20
-0.25
0
SEQEND
0
POLYLINE
8
L3D0_POLY
70
1
40
0
41
0
66
1
0
VERTEX
8
L3D0_POLY
10
-0.525
20
-0.25
0
VERTEX
8
L3D0_POLY
10
-0.525
20
2.25
0
VERTEX
8
L3D0_POLY
10
-0.275
20
2.25
0
VERTEX
8
L3D0_POLY
10
-0.275
20
-0.25
0
SEQEND
0
POLYLINE
8
L3D0_POLY
70
1
40
0
41
0
66
1
0
SEQEND
0
POLYLINE
8
L3D0_POLY
70
1
40
0
41
0
66
1
0
SEQEND
0
POLYLINE
8
L3D0_POLY
70
1
40
0
41
0
66
1
0
SEQEND
0
POLYLINE
8
L3D0_POLY
70
1
40
0
41
0
66
1
0
SEQEND
0
POLYLINE
8
L3D0_POLY
70
1
40
0
41
0
66
1
0
VERTEX
8
L3D0_POLY
10
0.275
20
-0.25
0
VERTEX
8
L3D0_POLY
10
0.275
20
2.25
0
VERTEX
8
L3D0_POLY
10
0.525
20
2.25
0
VERTEX
8
L3D0_POLY
10
0.525
20
-0.25
0
SEQEND
0
POLYLINE
8
L3D0_POLY
70
1
40
0
41
0
66
1
0
VERTEX
8
L3D0_POLY
10
0.275
20
-0.25
0
VERTEX
8
L3D0_POLY
10
0.275
20
2.25
0
VERTEX
8
L3D0_POLY
10
0.525
20
2.25
0
VERTEX
8
L3D0_POLY
10
0.525
20
-0.25
0
SEQEND
0
POLYLINE
8
L3D0_POLY
70
1
40
0
41
0
66
1
0
SEQEND
0
POLYLINE
8
L3D0_POLY
70
1
40
0
41
0
66
1
0
SEQEND
0
POLYLINE
8
L3D0_POLY
70
1
40
0
41
0
66
1
0
SEQEND
0
POLYLINE
8
L3D0_POLY
70
1
40
0
41
0
66
1
0
SEQEND
0
POLYLINE
8
L3D0_POLY
70
1
40
0
41
0
66
1
0
VERTEX
8
L3D0_POLY
10
-1.7
20
1.62
0
VERTEX
8
L3D0_POLY
10
-1.7
20
1.98
0
VERTEX
8
L3D0_POLY
10
-0.4
20
1.98
0
VERTEX
8
L3D0_POLY
10
-0.4
20
1.62
0
SEQEND
0
POLYLINE
8
L3D0_POLY
70
1
40
0
41
0
66
1
0
VERTEX
8
L3D0_POLY
10
-1.7
20
1.62
0
VERTEX
8
L3D0_POLY
10
-1.7
20
1.98
0
VERTEX
8
L3D0_POLY
10
-0.4
20
1.98
0
VERTEX
8
L3D0_POLY
10
-0.4
20
1.62
0
SEQEND
0
POLYLINE
8
L3D0_POLY
70
1
40
0
41
0
66
1
0
SEQEND
0
POLYLINE
8
L3D0_POLY
70
1
40
0
41
0
66
1
0
SEQEND
0
POLYLINE
8
L3D0_POLY
70
1
40
0
41
0
66
1
0
SEQEND
0
POLYLINE
8
L3D0_POLY
70
1
40
0
41
0
66
1
0
SEQEND
0
POLYLINE
8
L8D0_METAL2
70
1
40
0
41
0
66
1
0
VERTEX
8
L8D0_METAL2
10
-1.4
20
-0.45
0
VERTEX
8
L8D0_METAL2
10
-1.4
20
0.45
0
VERTEX
8
L8D0_METAL2
10
1.4
20
0.45
0
VERTEX
8
L8D0_METAL2
10
1.4
20
-0.45
0
SEQEND
0
POLYLINE
8
L8D0_METAL2
70
1
40
0
41
0
66
1
0
VERTEX
8
L8D0_METAL2
10
-1.4
20
-0.45
0
VERTEX
8
L8D0_METAL2
10
-1.4
20
0.45
0
VERTEX
8
L8D0_METAL2
10
1.4
20
0.45
0
VERTEX
8
L8D0_METAL2
10
1.4
20
-0.45
0
SEQEND
0
POLYLINE
8
L8D0_METAL2
70
1
40
0
41
0
66
1
0
SEQEND
0
POLYLINE
8
L8D0_METAL2
70
1
40
0
41
0
66
1
0
SEQEND
0
POLYLINE
8
L8D0_METAL2
70
1
40
0
41
0
66
1
0
SEQEND
0
POLYLINE
8
L8D0_METAL2
70
1
40
0
41
0
66
1
0
SEQEND
0
POLYLINE
8
L8D0_METAL2
70
1
40
0
41
0
66
1
0
VERTEX
8
L8D0_METAL2
10
-1.4
20
2.35
0
VERTEX
8
L8D0_METAL2
10
-1.4
20
3.25
0
VERTEX
8
L8D0_METAL2
10
1.4
20
3.25
0
VERTEX
8
L8D0_METAL2
10
1.4
20
2.35
0
SEQEND
0
POLYLINE
8
L8D0_METAL2
70
1
40
0
41
0
66
1
0
VERTEX
8
L8D0_METAL2
10
-1.4
20
2.35
0
VERTEX
8
L8D0_METAL2
10
-1.4
20
3.25
0
VERTEX
8
L8D0_METAL2
10
1.4
20
3.25
0
VERTEX
8
L8D0_METAL2
10
1.4
20
2.35
0
SEQEND
0
POLYLINE
8
L8D0_METAL2
70
1
40
0
41
0
66
1
0
SEQEND
0
POLYLINE
8
L8D0_METAL2
70
1
40
0
41
0
66
1
0
SEQEND
0
POLYLINE
8
L8D0_METAL2
70
1
40
0
41
0
66
1
0
SEQEND
0
POLYLINE
8
L8D0_METAL2
70
1
40
0
41
0
66
1
0
SEQEND
0
POLYLINE
8
L1D0_NWELL
70
1
40
0
41
0
66
1
0
VERTEX
8
L1D0_NWELL
10
-1.4
20
1.8
0
VERTEX
8
L1D0_NWELL
10
-1.4
20
3.8
0
VERTEX
8
L1D0_NWELL
10
1.4
20
3.8
0
VERTEX
8
L1D0_NWELL
10
1.4
20
1.8
0
SEQEND
0
POLYLINE
8
L5D0_POLYCONT
70
1
40
0
41
0
66
1
0
VERTEX
8
L5D0_POLYCONT
10
0.29
20
0.89
0
VERTEX
8
L5D0_POLYCONT
10
0.29
20
1.11
0
VERTEX
8
L5D0_POLYCONT
10
0.51
20
1.11
0
VERTEX
8
L5D0_POLYCONT
10
0.51
20
0.89
0
SEQEND
0
POLYLINE
8
L5D0_POLYCONT
70
1
40
0
41
0
66
1
0
VERTEX
8
L5D0_POLYCONT
10
0.29
20
0.89
0
VERTEX
8
L5D0_POLYCONT
10
0.29
20
1.11
0
VERTEX
8
L5D0_POLYCONT
10
0.51
20
1.11
0
VERTEX
8
L5D0_POLYCONT
10
0.51
20
0.89
0
SEQEND
0
POLYLINE
8
L5D0_POLYCONT
70
1
40
0
41
0
66
1
0
SEQEND
0
POLYLINE
8
L5D0_POLYCONT
70
1
40
0
41
0
66
1
0
SEQEND
0
POLYLINE
8
L5D0_POLYCONT
70
1
40
0
41
0
66
1
0
SEQEND
0
POLYLINE
8
L5D0_POLYCONT
70
1
40
0
41
0
66
1
0
SEQEND
0
POLYLINE
8
L5D0_POLYCONT
70
1
40
0
41
0
66
1
0
VERTEX
8
L5D0_POLYCONT
10
-1.63
20
1.69
0
VERTEX
8
L5D0_POLYCONT
10
-1.63
20
1.91
0
VERTEX
8
L5D0_POLYCONT
10
-1.41
20
1.91
0
VERTEX
8
L5D0_POLYCONT
10
-1.41
20
1.69
0
SEQEND
0
POLYLINE
8
L5D0_POLYCONT
70
1
40
0
41
0
66
1
0
VERTEX
8
L5D0_POLYCONT
10
-1.63
20
1.69
0
VERTEX
8
L5D0_POLYCONT
10
-1.63
20
1.91
0
VERTEX
8
L5D0_POLYCONT
10
-1.41
20
1.91
0
VERTEX
8
L5D0_POLYCONT
10
-1.41
20
1.69
0
SEQEND
0
POLYLINE
8
L5D0_POLYCONT
70
1
40
0
41
0
66
1
0
SEQEND
0
POLYLINE
8
L5D0_POLYCONT
70
1
40
0
41
0
66
1
0
SEQEND
0
POLYLINE
8
L5D0_POLYCONT
70
1
40
0
41
0
66
1
0
SEQEND
0
POLYLINE
8
L5D0_POLYCONT
70
1
40
0
41
0
66
1
0
SEQEND
0
POLYLINE
8
L7D0_VIA1
70
1
40
0
41
0
66
1
0
VERTEX
8
L7D0_VIA1
10
-0.125
20
-0.325
0
VERTEX
8
L7D0_VIA1
10
-0.125
20
-0.075
0
VERTEX
8
L7D0_VIA1
10
0.125
20
-0.075
0
VERTEX
8
L7D0_VIA1
10
0.125
20
-0.325
0
SEQEND
0
POLYLINE
8
L7D0_VIA1
70
1
40
0
41
0
66
1
0
VERTEX
8
L7D0_VIA1
10
-0.125
20
-0.325
0
VERTEX
8
L7D0_VIA1
10
-0.125
20
-0.075
0
VERTEX
8
L7D0_VIA1
10
0.125
20
-0.075
0
VERTEX
8
L7D0_VIA1
10
0.125
20
-0.325
0
SEQEND
0
POLYLINE
8
L7D0_VIA1
70
1
40
0
41
0
66
1
0
SEQEND
0
POLYLINE
8
L7D0_VIA1
70
1
40
0
41
0
66
1
0
SEQEND
0
POLYLINE
8
L7D0_VIA1
70
1
40
0
41
0
66
1
0
SEQEND
0
POLYLINE
8
L7D0_VIA1
70
1
40
0
41
0
66
1
0
SEQEND
0
POLYLINE
8
L7D0_VIA1
70
1
40
0
41
0
66
1
0
VERTEX
8
L7D0_VIA1
10
-0.125
20
0.075
0
VERTEX
8
L7D0_VIA1
10
-0.125
20
0.325
0
VERTEX
8
L7D0_VIA1
10
0.125
20
0.325
0
VERTEX
8
L7D0_VIA1
10
0.125
20
0.075
0
SEQEND
0
POLYLINE
8
L7D0_VIA1
70
1
40
0
41
0
66
1
0
VERTEX
8
L7D0_VIA1
10
-0.125
20
0.075
0
VERTEX
8
L7D0_VIA1
10
-0.125
20
0.325
0
VERTEX
8
L7D0_VIA1
10
0.125
20
0.325
0
VERTEX
8
L7D0_VIA1
10
0.125
20
0.075
0
SEQEND
0
POLYLINE
8
L7D0_VIA1
70
1
40
0
41
0
66
1
0
SEQEND
0
POLYLINE
8
L7D0_VIA1
70
1
40
0
41
0
66
1
0
SEQEND
0
POLYLINE
8
L7D0_VIA1
70
1
40
0
41
0
66
1
0
SEQEND
0
POLYLINE
8
L7D0_VIA1
70
1
40
0
41
0
66
1
0
SEQEND
0
POLYLINE
8
L7D0_VIA1
70
1
40
0
41
0
66
1
0
VERTEX
8
L7D0_VIA1
10
-0.125
20
2.475
0
VERTEX
8
L7D0_VIA1
10
-0.125
20
2.725
0
VERTEX
8
L7D0_VIA1
10
0.125
20
2.725
0
VERTEX
8
L7D0_VIA1
10
0.125
20
2.475
0
SEQEND
0
POLYLINE
8
L7D0_VIA1
70
1
40
0
41
0
66
1
0
VERTEX
8
L7D0_VIA1
10
-0.125
20
2.475
0
VERTEX
8
L7D0_VIA1
10
-0.125
20
2.725
0
VERTEX
8
L7D0_VIA1
10
0.125
20
2.725
0
VERTEX
8
L7D0_VIA1
10
0.125
20
2.475
0
SEQEND
0
POLYLINE
8
L7D0_VIA1
70
1
40
0
41
0
66
1
0
SEQEND
0
POLYLINE
8
L7D0_VIA1
70
1
40
0
41
0
66
1
0
SEQEND
0
POLYLINE
8
L7D0_VIA1
70
1
40
0
41
0
66
1
0
SEQEND
0
POLYLINE
8
L7D0_VIA1
70
1
40
0
41
0
66
1
0
SEQEND
0
POLYLINE
8
L7D0_VIA1
70
1
40
0
41
0
66
1
0
VERTEX
8
L7D0_VIA1
10
-0.125
20
2.875
0
VERTEX
8
L7D0_VIA1
10
-0.125
20
3.125
0
VERTEX
8
L7D0_VIA1
10
0.125
20
3.125
0
VERTEX
8
L7D0_VIA1
10
0.125
20
2.875
0
SEQEND
0
POLYLINE
8
L7D0_VIA1
70
1
40
0
41
0
66
1
0
VERTEX
8
L7D0_VIA1
10
-0.125
20
2.875
0
VERTEX
8
L7D0_VIA1
10
-0.125
20
3.125
0
VERTEX
8
L7D0_VIA1
10
0.125
20
3.125
0
VERTEX
8
L7D0_VIA1
10
0.125
20
2.875
0
SEQEND
0
POLYLINE
8
L7D0_VIA1
70
1
40
0
41
0
66
1
0
SEQEND
0
POLYLINE
8
L7D0_VIA1
70
1
40
0
41
0
66
1
0
SEQEND
0
POLYLINE
8
L7D0_VIA1
70
1
40
0
41
0
66
1
0
SEQEND
0
POLYLINE
8
L7D0_VIA1
70
1
40
0
41
0
66
1
0
SEQEND
0
ENDBLK
0
ENDSEC
0
SECTION
2
ENTITIES
0
INSERT
8
0
2
INV2
10
0
20
0
41
1
42
1
50
0
0
INSERT
8
0
2
INV2
10
2.64
20
0
41
1
42
1
50
0
0
INSERT
8
0
2
INV2
10
5.28
20
0
41
1
42
1
50
0
0
INSERT
8
0
2
INV2
10
7.92
20
0
41
1
42
1
50
0
0
INSERT
8
0
2
INV2
10
10.56
20
0
41
1
42
1
50
0
0
INSERT
8
0
2
INV2
10
13.2
20
0
41
1
42
1
50
0
0
INSERT
8
0
2
INV2
10
15.84
20
0
41
1
42
1
50
0
0
INSERT
8
0
2
INV2
10
18.48
20
0
41
1
42
1
50
0
0
INSERT
8
0
2
INV2
10
23.76
20
0
41
1
42
1
50
0
0
POLYLINE
8
L2D0_DIFF
70
1
40
0
41
0
66
1
0
VERTEX
8
L2D0_DIFF
10
20.07
20
-0.475
0
VERTEX
8
L2D0_DIFF
10
20.07
20
0.475
0
VERTEX
8
L2D0_DIFF
10
21.37
20
0.475
0
VERTEX
8
L2D0_DIFF
10
21.37
20
-0.475
0
SEQEND
0
POLYLINE
8
L2D0_DIFF
70
1
40
0
41
0
66
1
0
VERTEX
8
L2D0_DIFF
10
20.87
20
-0.475
0
VERTEX
8
L2D0_DIFF
10
20.87
20
0.475
0
VERTEX
8
L2D0_DIFF
10
22.17
20
0.475
0
VERTEX
8
L2D0_DIFF
10
22.17
20
-0.475
0
SEQEND
0
POLYLINE
8
L2D0_DIFF
70
1
40
0
41
0
66
1
0
VERTEX
8
L2D0_DIFF
10
20.07
20
2.325
0
VERTEX
8
L2D0_DIFF
10
20.07
20
3.275
0
VERTEX
8
L2D0_DIFF
10
21.37
20
3.275
0
VERTEX
8
L2D0_DIFF
10
21.37
20
2.325
0
SEQEND
0
POLYLINE
8
L2D0_DIFF
70
1
40
0
41
0
66
1
0
VERTEX
8
L2D0_DIFF
10
20.87
20
2.325
0
VERTEX
8
L2D0_DIFF
10
20.87
20
3.275
0
VERTEX
8
L2D0_DIFF
10
22.17
20
3.275
0
VERTEX
8
L2D0_DIFF
10
22.17
20
2.325
0
SEQEND
0
POLYLINE
8
L4D0_DIFFCONT
70
1
40
0
41
0
66
1
0
VERTEX
8
L4D0_DIFFCONT
10
20.21
20
-0.31
0
VERTEX
8
L4D0_DIFFCONT
10
20.21
20
-0.09
0
VERTEX
8
L4D0_DIFFCONT
10
20.43
20
-0.09
0
VERTEX
8
L4D0_DIFFCONT
10
20.43
20
-0.31
0
SEQEND
0
POLYLINE
8
L4D0_DIFFCONT
70
1
40
0
41
0
66
1
0
VERTEX
8
L4D0_DIFFCONT
10
20.21
20
-0.31
0
VERTEX
8
L4D0_DIFFCONT
10
20.21
20
-0.09
0
VERTEX
8
L4D0_DIFFCONT
10
20.43
20
-0.09
0
VERTEX
8
L4D0_DIFFCONT
10
20.43
20
-0.31
0
SEQEND
0
POLYLINE
8
L4D0_DIFFCONT
70
1
40
0
41
0
66
1
0
SEQEND
0
POLYLINE
8
L4D0_DIFFCONT
70
1
40
0
41
0
66
1
0
SEQEND
0
POLYLINE
8
L4D0_DIFFCONT
70
1
40
0
41
0
66
1
0
SEQEND
0
POLYLINE
8
L4D0_DIFFCONT
70
1
40
0
41
0
66
1
0
SEQEND
0
POLYLINE
8
L4D0_DIFFCONT
70
1
40
0
41
0
66
1
0
VERTEX
8
L4D0_DIFFCONT
10
21.01
20
-0.31
0
VERTEX
8
L4D0_DIFFCONT
10
21.01
20
-0.09
0
VERTEX
8
L4D0_DIFFCONT
10
21.23
20
-0.09
0
VERTEX
8
L4D0_DIFFCONT
10
21.23
20
-0.31
0
SEQEND
0
POLYLINE
8
L4D0_DIFFCONT
70
1
40
0
41
0
66
1
0
VERTEX
8
L4D0_DIFFCONT
10
21.01
20
-0.31
0
VERTEX
8
L4D0_DIFFCONT
10
21.01
20
-0.09
0
VERTEX
8
L4D0_DIFFCONT
10
21.23
20
-0.09
0
VERTEX
8
L4D0_DIFFCONT
10
21.23
20
-0.31
0
SEQEND
0
POLYLINE
8
L4D0_DIFFCONT
70
1
40
0
41
0
66
1
0
SEQEND
0
POLYLINE
8
L4D0_DIFFCONT
70
1
40
0
41
0
66
1
0
SEQEND
0
POLYLINE
8
L4D0_DIFFCONT
70
1
40
0
41
0
66
1
0
SEQEND
0
POLYLINE
8
L4D0_DIFFCONT
70
1
40
0
41
0
66
1
0
SEQEND
0
POLYLINE
8
L4D0_DIFFCONT
70
1
40
0
41
0
66
1
0
VERTEX
8
L4D0_DIFFCONT
10
21.81
20
-0.31
0
VERTEX
8
L4D0_DIFFCONT
10
21.81
20
-0.09
0
VERTEX
8
L4D0_DIFFCONT
10
22.03
20
-0.09
0
VERTEX
8
L4D0_DIFFCONT
10
22.03
20
-0.31
0
SEQEND
0
POLYLINE
8
L4D0_DIFFCONT
70
1
40
0
41
0
66
1
0
VERTEX
8
L4D0_DIFFCONT
10
21.81
20
-0.31
0
VERTEX
8
L4D0_DIFFCONT
10
21.81
20
-0.09
0
VERTEX
8
L4D0_DIFFCONT
10
22.03
20
-0.09
0
VERTEX
8
L4D0_DIFFCONT
10
22.03
20
-0.31
0
SEQEND
0
POLYLINE
8
L4D0_DIFFCONT
70
1
40
0
41
0
66
1
0
SEQEND
0
POLYLINE
8
L4D0_DIFFCONT
70
1
40
0
41
0
66
1
0
SEQEND
0
POLYLINE
8
L4D0_DIFFCONT
70
1
40
0
41
0
66
1
0
SEQEND
0
POLYLINE
8
L4D0_DIFFCONT
70
1
40
0
41
0
66
1
0
SEQEND
0
POLYLINE
8
L4D0_DIFFCONT
70
1
40
0
41
0
66
1
0
VERTEX
8
L4D0_DIFFCONT
10
20.21
20
0.09
0
VERTEX
8
L4D0_DIFFCONT
10
20.21
20
0.31
0
VERTEX
8
L4D0_DIFFCONT
10
20.43
20
0.31
0
VERTEX
8
L4D0_DIFFCONT
10
20.43
20
0.09
0
SEQEND
0
POLYLINE
8
L4D0_DIFFCONT
70
1
40
0
41
0
66
1
0
VERTEX
8
L4D0_DIFFCONT
10
20.21
20
0.09
0
VERTEX
8
L4D0_DIFFCONT
10
20.21
20
0.31
0
VERTEX
8
L4D0_DIFFCONT
10
20.43
20
0.31
0
VERTEX
8
L4D0_DIFFCONT
10
20.43
20
0.09
0
SEQEND
0
POLYLINE
8
L4D0_DIFFCONT
70
1
40
0
41
0
66
1
0
SEQEND
0
POLYLINE
8
L4D0_DIFFCONT
70
1
40
0
41
0
66
1
0
SEQEND
0
POLYLINE
8
L4D0_DIFFCONT
70
1
40
0
41
0
66
1
0
SEQEND
0
POLYLINE
8
L4D0_DIFFCONT
70
1
40
0
41
0
66
1
0
SEQEND
0
POLYLINE
8
L4D0_DIFFCONT
70
1
40
0
41
0
66
1
0
VERTEX
8
L4D0_DIFFCONT
10
21.01
20
0.09
0
VERTEX
8
L4D0_DIFFCONT
10
21.01
20
0.31
0
VERTEX
8
L4D0_DIFFCONT
10
21.23
20
0.31
0
VERTEX
8
L4D0_DIFFCONT
10
21.23
20
0.09
0
SEQEND
0
POLYLINE
8
L4D0_DIFFCONT
70
1
40
0
41
0
66
1
0
VERTEX
8
L4D0_DIFFCONT
10
21.01
20
0.09
0
VERTEX
8
L4D0_DIFFCONT
10
21.01
20
0.31
0
VERTEX
8
L4D0_DIFFCONT
10
21.23
20
0.31
0
VERTEX
8
L4D0_DIFFCONT
10
21.23
20
0.09
0
SEQEND
0
POLYLINE
8
L4D0_DIFFCONT
70
1
40
0
41
0
66
1
0
SEQEND
0
POLYLINE
8
L4D0_DIFFCONT
70
1
40
0
41
0
66
1
0
SEQEND
0
POLYLINE
8
L4D0_DIFFCONT
70
1
40
0
41
0
66
1
0
SEQEND
0
POLYLINE
8
L4D0_DIFFCONT
70
1
40
0
41
0
66
1
0
SEQEND
0
POLYLINE
8
L4D0_DIFFCONT
70
1
40
0
41
0
66
1
0
VERTEX
8
L4D0_DIFFCONT
10
21.81
20
0.09
0
VERTEX
8
L4D0_DIFFCONT
10
21.81
20
0.31
0
VERTEX
8
L4D0_DIFFCONT
10
22.03
20
0.31
0
VERTEX
8
L4D0_DIFFCONT
10
22.03
20
0.09
0
SEQEND
0
POLYLINE
8
L4D0_DIFFCONT
70
1
40
0
41
0
66
1
0
VERTEX
8
L4D0_DIFFCONT
10
21.81
20
0.09
0
VERTEX
8
L4D0_DIFFCONT
10
21.81
20
0.31
0
VERTEX
8
L4D0_DIFFCONT
10
22.03
20
0.31
0
VERTEX
8
L4D0_DIFFCONT
10
22.03
20
0.09
0
SEQEND
0
POLYLINE
8
L4D0_DIFFCONT
70
1
40
0
41
0
66
1
0
SEQEND
0
POLYLINE
8
L4D0_DIFFCONT
70
1
40
0
41
0
66
1
0
SEQEND
0
POLYLINE
8
L4D0_DIFFCONT
70
1
40
0
41
0
66
1
0
SEQEND
0
POLYLINE
8
L4D0_DIFFCONT
70
1
40
0
41
0
66
1
0
SEQEND
0
POLYLINE
8
L4D0_DIFFCONT
70
1
40
0
41
0
66
1
0
VERTEX
8
L4D0_DIFFCONT
10
20.21
20
2.49
0
VERTEX
8
L4D0_DIFFCONT
10
20.21
20
2.71
0
VERTEX
8
L4D0_DIFFCONT
10
20.43
20
2.71
0
VERTEX
8
L4D0_DIFFCONT
10
20.43
20
2.49
0
SEQEND
0
POLYLINE
8
L4D0_DIFFCONT
70
1
40
0
41
0
66
1
0
VERTEX
8
L4D0_DIFFCONT
10
20.21
20
2.49
0
VERTEX
8
L4D0_DIFFCONT
10
20.21
20
2.71
0
VERTEX
8
L4D0_DIFFCONT
10
20.43
20
2.71
0
VERTEX
8
L4D0_DIFFCONT
10
20.43
20
2.49
0
SEQEND
0
POLYLINE
8
L4D0_DIFFCONT
70
1
40
0
41
0
66
1
0
SEQEND
0
POLYLINE
8
L4D0_DIFFCONT
70
1
40
0
41
0
66
1
0
SEQEND
0
POLYLINE
8
L4D0_DIFFCONT
70
1
40
0
41
0
66
1
0
SEQEND
0
POLYLINE
8
L4D0_DIFFCONT
70
1
40
0
41
0
66
1
0
SEQEND
0
POLYLINE
8
L4D0_DIFFCONT
70
1
40
0
41
0
66
1
0
VERTEX
8
L4D0_DIFFCONT
10
21.01
20
2.49
0
VERTEX
8
L4D0_DIFFCONT
10
21.01
20
2.71
0
VERTEX
8
L4D0_DIFFCONT
10
21.23
20
2.71
0
VERTEX
8
L4D0_DIFFCONT
10
21.23
20
2.49
0
SEQEND
0
POLYLINE
8
L4D0_DIFFCONT
70
1
40
0
41
0
66
1
0
VERTEX
8
L4D0_DIFFCONT
10
21.01
20
2.49
0
VERTEX
8
L4D0_DIFFCONT
10
21.01
20
2.71
0
VERTEX
8
L4D0_DIFFCONT
10
21.23
20
2.71
0
VERTEX
8
L4D0_DIFFCONT
10
21.23
20
2.49
0
SEQEND
0
POLYLINE
8
L4D0_DIFFCONT
70
1
40
0
41
0
66
1
0
SEQEND
0
POLYLINE
8
L4D0_DIFFCONT
70
1
40
0
41
0
66
1
0
SEQEND
0
POLYLINE
8
L4D0_DIFFCONT
70
1
40
0
41
0
66
1
0
SEQEND
0
POLYLINE
8
L4D0_DIFFCONT
70
1
40
0
41
0
66
1
0
SEQEND
0
POLYLINE
8
L4D0_DIFFCONT
70
1
40
0
41
0
66
1
0
VERTEX
8
L4D0_DIFFCONT
10
21.81
20
2.49
0
VERTEX
8
L4D0_DIFFCONT
10
21.81
20
2.71
0
VERTEX
8
L4D0_DIFFCONT
10
22.03
20
2.71
0
VERTEX
8
L4D0_DIFFCONT
10
22.03
20
2.49
0
SEQEND
0
POLYLINE
8
L4D0_DIFFCONT
70
1
40
0
41
0
66
1
0
VERTEX
8
L4D0_DIFFCONT
10
21.81
20
2.49
0
VERTEX
8
L4D0_DIFFCONT
10
21.81
20
2.71
0
VERTEX
8
L4D0_DIFFCONT
10
22.03
20
2.71
0
VERTEX
8
L4D0_DIFFCONT
10
22.03
20
2.49
0
SEQEND
0
POLYLINE
8
L4D0_DIFFCONT
70
1
40
0
41
0
66
1
0
SEQEND
0
POLYLINE
8
L4D0_DIFFCONT
70
1
40
0
41
0
66
1
0
SEQEND
0
POLYLINE
8
L4D0_DIFFCONT
70
1
40
0
41
0
66
1
0
SEQEND
0
POLYLINE
8
L4D0_DIFFCONT
70
1
40
0
41
0
66
1
0
SEQEND
0
POLYLINE
8
L4D0_DIFFCONT
70
1
40
0
41
0
66
1
0
VERTEX
8
L4D0_DIFFCONT
10
20.21
20
2.89
0
VERTEX
8
L4D0_DIFFCONT
10
20.21
20
3.11
0
VERTEX
8
L4D0_DIFFCONT
10
20.43
20
3.11
0
VERTEX
8
L4D0_DIFFCONT
10
20.43
20
2.89
0
SEQEND
0
POLYLINE
8
L4D0_DIFFCONT
70
1
40
0
41
0
66
1
0
VERTEX
8
L4D0_DIFFCONT
10
20.21
20
2.89
0
VERTEX
8
L4D0_DIFFCONT
10
20.21
20
3.11
0
VERTEX
8
L4D0_DIFFCONT
10
20.43
20
3.11
0
VERTEX
8
L4D0_DIFFCONT
10
20.43
20
2.89
0
SEQEND
0
POLYLINE
8
L4D0_DIFFCONT
70
1
40
0
41
0
66
1
0
SEQEND
0
POLYLINE
8
L4D0_DIFFCONT
70
1
40
0
41
0
66
1
0
SEQEND
0
POLYLINE
8
L4D0_DIFFCONT
70
1
40
0
41
0
66
1
0
SEQEND
0
POLYLINE
8
L4D0_DIFFCONT
70
1
40
0
41
0
66
1
0
SEQEND
0
POLYLINE
8
L4D0_DIFFCONT
70
1
40
0
41
0
66
1
0
VERTEX
8
L4D0_DIFFCONT
10
21.01
20
2.89
0
VERTEX
8
L4D0_DIFFCONT
10
21.01
20
3.11
0
VERTEX
8
L4D0_DIFFCONT
10
21.23
20
3.11
0
VERTEX
8
L4D0_DIFFCONT
10
21.23
20
2.89
0
SEQEND
0
POLYLINE
8
L4D0_DIFFCONT
70
1
40
0
41
0
66
1
0
VERTEX
8
L4D0_DIFFCONT
10
21.01
20
2.89
0
VERTEX
8
L4D0_DIFFCONT
10
21.01
20
3.11
0
VERTEX
8
L4D0_DIFFCONT
10
21.23
20
3.11
0
VERTEX
8
L4D0_DIFFCONT
10
21.23
20
2.89
0
SEQEND
0
POLYLINE
8
L4D0_DIFFCONT
70
1
40
0
41
0
66
1
0
SEQEND
0
POLYLINE
8
L4D0_DIFFCONT
70
1
40
0
41
0
66
1
0
SEQEND
0
POLYLINE
8
L4D0_DIFFCONT
70
1
40
0
41
0
66
1
0
SEQEND
0
POLYLINE
8
L4D0_DIFFCONT
70
1
40
0
41
0
66
1
0
SEQEND
0
POLYLINE
8
L4D0_DIFFCONT
70
1
40
0
41
0
66
1
0
VERTEX
8
L4D0_DIFFCONT
10
21.81
20
2.89
0
VERTEX
8
L4D0_DIFFCONT
10
21.81
20
3.11
0
VERTEX
8
L4D0_DIFFCONT
10
22.03
20
3.11
0
VERTEX
8
L4D0_DIFFCONT
10
22.03
20
2.89
0
SEQEND
0
POLYLINE
8
L4D0_DIFFCONT
70
1
40
0
41
0
66
1
0
VERTEX
8
L4D0_DIFFCONT
10
21.81
20
2.89
0
VERTEX
8
L4D0_DIFFCONT
10
21.81
20
3.11
0
VERTEX
8
L4D0_DIFFCONT
10
22.03
20
3.11
0
VERTEX
8
L4D0_DIFFCONT
10
22.03
20
2.89
0
SEQEND
0
POLYLINE
8
L4D0_DIFFCONT
70
1
40
0
41
0
66
1
0
SEQEND
0
POLYLINE
8
L4D0_DIFFCONT
70
1
40
0
41
0
66
1
0
SEQEND
0
POLYLINE
8
L4D0_DIFFCONT
70
1
40
0
41
0
66
1
0
SEQEND
0
POLYLINE
8
L4D0_DIFFCONT
70
1
40
0
41
0
66
1
0
SEQEND
0
POLYLINE
8
L4D0_DIFFCONT
70
1
40
0
41
0
66
1
0
VERTEX
8
L4D0_DIFFCONT
10
21.01
20
-0.31
0
VERTEX
8
L4D0_DIFFCONT
10
21.01
20
-0.09
0
VERTEX
8
L4D0_DIFFCONT
10
21.23
20
-0.09
0
VERTEX
8
L4D0_DIFFCONT
10
21.23
20
-0.31
0
SEQEND
0
POLYLINE
8
L4D0_DIFFCONT
70
1
40
0
41
0
66
1
0
VERTEX
8
L4D0_DIFFCONT
10
21.01
20
-0.31
0
VERTEX
8
L4D0_DIFFCONT
10
21.01
20
-0.09
0
VERTEX
8
L4D0_DIFFCONT
10
21.23
20
-0.09
0
VERTEX
8
L4D0_DIFFCONT
10
21.23
20
-0.31
0
SEQEND
0
POLYLINE
8
L4D0_DIFFCONT
70
1
40
0
41
0
66
1
0
SEQEND
0
POLYLINE
8
L4D0_DIFFCONT
70
1
40
0
41
0
66
1
0
SEQEND
0
POLYLINE
8
L4D0_DIFFCONT
70
1
40
0
41
0
66
1
0
SEQEND
0
POLYLINE
8
L4D0_DIFFCONT
70
1
40
0
41
0
66
1
0
SEQEND
0
POLYLINE
8
L4D0_DIFFCONT
70
1
40
0
41
0
66
1
0
VERTEX
8
L4D0_DIFFCONT
10
21.01
20
0.09
0
VERTEX
8
L4D0_DIFFCONT
10
21.01
20
0.31
0
VERTEX
8
L4D0_DIFFCONT
10
21.23
20
0.31
0
VERTEX
8
L4D0_DIFFCONT
10
21.23
20
0.09
0
SEQEND
0
POLYLINE
8
L4D0_DIFFCONT
70
1
40
0
41
0
66
1
0
VERTEX
8
L4D0_DIFFCONT
10
21.01
20
0.09
0
VERTEX
8
L4D0_DIFFCONT
10
21.01
20
0.31
0
VERTEX
8
L4D0_DIFFCONT
10
21.23
20
0.31
0
VERTEX
8
L4D0_DIFFCONT
10
21.23
20
0.09
0
SEQEND
0
POLYLINE
8
L4D0_DIFFCONT
70
1
40
0
41
0
66
1
0
SEQEND
0
POLYLINE
8
L4D0_DIFFCONT
70
1
40
0
41
0
66
1
0
SEQEND
0
POLYLINE
8
L4D0_DIFFCONT
70
1
40
0
41
0
66
1
0
SEQEND
0
POLYLINE
8
L4D0_DIFFCONT
70
1
40
0
41
0
66
1
0
SEQEND
0
POLYLINE
8
L4D0_DIFFCONT
70
1
40
0
41
0
66
1
0
VERTEX
8
L4D0_DIFFCONT
10
21.01
20
2.49
0
VERTEX
8
L4D0_DIFFCONT
10
21.01
20
2.71
0
VERTEX
8
L4D0_DIFFCONT
10
21.23
20
2.71
0
VERTEX
8
L4D0_DIFFCONT
10
21.23
20
2.49
0
SEQEND
0
POLYLINE
8
L4D0_DIFFCONT
70
1
40
0
41
0
66
1
0
VERTEX
8
L4D0_DIFFCONT
10
21.01
20
2.49
0
VERTEX
8
L4D0_DIFFCONT
10
21.01
20
2.71
0
VERTEX
8
L4D0_DIFFCONT
10
21.23
20
2.71
0
VERTEX
8
L4D0_DIFFCONT
10
21.23
20
2.49
0
SEQEND
0
POLYLINE
8
L4D0_DIFFCONT
70
1
40
0
41
0
66
1
0
SEQEND
0
POLYLINE
8
L4D0_DIFFCONT
70
1
40
0
41
0
66
1
0
SEQEND
0
POLYLINE
8
L4D0_DIFFCONT
70
1
40
0
41
0
66
1
0
SEQEND
0
POLYLINE
8
L4D0_DIFFCONT
70
1
40
0
41
0
66
1
0
SEQEND
0
POLYLINE
8
L4D0_DIFFCONT
70
1
40
0
41
0
66
1
0
VERTEX
8
L4D0_DIFFCONT
10
21.01
20
2.89
0
VERTEX
8
L4D0_DIFFCONT
10
21.01
20
3.11
0
VERTEX
8
L4D0_DIFFCONT
10
21.23
20
3.11
0
VERTEX
8
L4D0_DIFFCONT
10
21.23
20
2.89
0
SEQEND
0
POLYLINE
8
L4D0_DIFFCONT
70
1
40
0
41
0
66
1
0
VERTEX
8
L4D0_DIFFCONT
10
21.01
20
2.89
0
VERTEX
8
L4D0_DIFFCONT
10
21.01
20
3.11
0
VERTEX
8
L4D0_DIFFCONT
10
21.23
20
3.11
0
VERTEX
8
L4D0_DIFFCONT
10
21.23
20
2.89
0
SEQEND
0
POLYLINE
8
L4D0_DIFFCONT
70
1
40
0
41
0
66
1
0
SEQEND
0
POLYLINE
8
L4D0_DIFFCONT
70
1
40
0
41
0
66
1
0
SEQEND
0
POLYLINE
8
L4D0_DIFFCONT
70
1
40
0
41
0
66
1
0
SEQEND
0
POLYLINE
8
L4D0_DIFFCONT
70
1
40
0
41
0
66
1
0
SEQEND
0
POLYLINE
8
L6D0_METAL1
70
1
40
0
41
0
66
1
0
VERTEX
8
L6D0_METAL1
10
21.92
20
0.02
0
VERTEX
8
L6D0_METAL1
10
21.92
20
0.38
0
VERTEX
8
L6D0_METAL1
10
22.42
20
0.38
0
VERTEX
8
L6D0_METAL1
10
22.42
20
0.02
0
SEQEND
0
POLYLINE
8
L6D0_METAL1
70
1
40
0
41
0
66
1
0
VERTEX
8
L6D0_METAL1
10
21.92
20
0.02
0
VERTEX
8
L6D0_METAL1
10
21.92
20
0.38
0
VERTEX
8
L6D0_METAL1
10
22.42
20
0.38
0
VERTEX
8
L6D0_METAL1
10
22.42
20
0.02
0
SEQEND
0
POLYLINE
8
L6D0_METAL1
70
1
40
0
41
0
66
1
0
VERTEX
8
L6D0_METAL1
10
22.06
20
0.38
0
VERTEX
8
L6D0_METAL1
10
22.06
20
1.62
0
VERTEX
8
L6D0_METAL1
10
22.42
20
1.62
0
VERTEX
8
L6D0_METAL1
10
22.42
20
0.38
0
SEQEND
0
POLYLINE
8
L6D0_METAL1
70
1
40
0
41
0
66
1
0
VERTEX
8
L6D0_METAL1
10
22.06
20
0.38
0
VERTEX
8
L6D0_METAL1
10
22.06
20
1.62
0
VERTEX
8
L6D0_METAL1
10
22.42
20
1.62
0
VERTEX
8
L6D0_METAL1
10
22.42
20
0.38
0
SEQEND
0
POLYLINE
8
L6D0_METAL1
70
1
40
0
41
0
66
1
0
VERTEX
8
L6D0_METAL1
10
21.74
20
1.62
0
VERTEX
8
L6D0_METAL1
10
21.74
20
1.98
0
VERTEX
8
L6D0_METAL1
10
22.42
20
1.98
0
VERTEX
8
L6D0_METAL1
10
22.42
20
1.62
0
SEQEND
0
POLYLINE
8
L6D0_METAL1
70
1
40
0
41
0
66
1
0
VERTEX
8
L6D0_METAL1
10
21.74
20
1.62
0
VERTEX
8
L6D0_METAL1
10
21.74
20
1.98
0
VERTEX
8
L6D0_METAL1
10
22.42
20
1.98
0
VERTEX
8
L6D0_METAL1
10
22.42
20
1.62
0
SEQEND
0
POLYLINE
8
L6D0_METAL1
70
1
40
0
41
0
66
1
0
VERTEX
8
L6D0_METAL1
10
21.74
20
1.98
0
VERTEX
8
L6D0_METAL1
10
21.74
20
2.42
0
VERTEX
8
L6D0_METAL1
10
22.1
20
2.42
0
VERTEX
8
L6D0_METAL1
10
22.1
20
1.98
0
SEQEND
0
POLYLINE
8
L6D0_METAL1
70
1
40
0
41
0
66
1
0
VERTEX
8
L6D0_METAL1
10
21.74
20
1.98
0
VERTEX
8
L6D0_METAL1
10
21.74
20
2.42
0
VERTEX
8
L6D0_METAL1
10
22.1
20
2.42
0
VERTEX
8
L6D0_METAL1
10
22.1
20
1.98
0
SEQEND
0
POLYLINE
8
L6D0_METAL1
70
1
40
0
41
0
66
1
0
SEQEND
0
POLYLINE
8
L6D0_METAL1
70
1
40
0
41
0
66
1
0
SEQEND
0
POLYLINE
8
L6D0_METAL1
70
1
40
0
41
0
66
1
0
SEQEND
0
POLYLINE
8
L6D0_METAL1
70
1
40
0
41
0
66
1
0
SEQEND
0
POLYLINE
8
L6D0_METAL1
70
1
40
0
41
0
66
1
0
SEQEND
0
POLYLINE
8
L6D0_METAL1
70
1
40
0
41
0
66
1
0
SEQEND
0
POLYLINE
8
L6D0_METAL1
70
1
40
0
41
0
66
1
0
SEQEND
0
POLYLINE
8
L6D0_METAL1
70
1
40
0
41
0
66
1
0
SEQEND
0
POLYLINE
8
L6D0_METAL1
70
1
40
0
41
0
66
1
0
SEQEND
0
POLYLINE
8
L6D0_METAL1
70
1
40
0
41
0
66
1
0
SEQEND
0
POLYLINE
8
L6D0_METAL1
70
1
40
0
41
0
66
1
0
VERTEX
8
L6D0_METAL1
10
20.14
20
-0.42
0
VERTEX
8
L6D0_METAL1
10
20.14
20
2.42
0
VERTEX
8
L6D0_METAL1
10
20.5
20
2.42
0
VERTEX
8
L6D0_METAL1
10
20.5
20
-0.42
0
SEQEND
0
POLYLINE
8
L6D0_METAL1
70
1
40
0
41
0
66
1
0
VERTEX
8
L6D0_METAL1
10
20.14
20
-0.42
0
VERTEX
8
L6D0_METAL1
10
20.14
20
2.42
0
VERTEX
8
L6D0_METAL1
10
20.5
20
2.42
0
VERTEX
8
L6D0_METAL1
10
20.5
20
-0.42
0
SEQEND
0
POLYLINE
8
L6D0_METAL1
70
1
40
0
41
0
66
1
0
SEQEND
0
POLYLINE
8
L6D0_METAL1
70
1
40
0
41
0
66
1
0
SEQEND
0
POLYLINE
8
L6D0_METAL1
70
1
40
0
41
0
66
1
0
SEQEND
0
POLYLINE
8
L6D0_METAL1
70
1
40
0
41
0
66
1
0
SEQEND
0
POLYLINE
8
L6D0_METAL1
70
1
40
0
41
0
66
1
0
VERTEX
8
L6D0_METAL1
10
20.14
20
-0.38
0
VERTEX
8
L6D0_METAL1
10
20.14
20
0.38
0
VERTEX
8
L6D0_METAL1
10
20.5
20
0.38
0
VERTEX
8
L6D0_METAL1
10
20.5
20
-0.38
0
SEQEND
0
POLYLINE
8
L6D0_METAL1
70
1
40
0
41
0
66
1
0
VERTEX
8
L6D0_METAL1
10
20.14
20
-0.38
0
VERTEX
8
L6D0_METAL1
10
20.14
20
0.38
0
VERTEX
8
L6D0_METAL1
10
20.5
20
0.38
0
VERTEX
8
L6D0_METAL1
10
20.5
20
-0.38
0
SEQEND
0
POLYLINE
8
L6D0_METAL1
70
1
40
0
41
0
66
1
0
SEQEND
0
POLYLINE
8
L6D0_METAL1
70
1
40
0
41
0
66
1
0
SEQEND
0
POLYLINE
8
L6D0_METAL1
70
1
40
0
41
0
66
1
0
SEQEND
0
POLYLINE
8
L6D0_METAL1
70
1
40
0
41
0
66
1
0
SEQEND
0
POLYLINE
8
L6D0_METAL1
70
1
40
0
41
0
66
1
0
VERTEX
8
L6D0_METAL1
10
20.94
20
-0.38
0
VERTEX
8
L6D0_METAL1
10
20.94
20
0.38
0
VERTEX
8
L6D0_METAL1
10
21.3
20
0.38
0
VERTEX
8
L6D0_METAL1
10
21.3
20
-0.38
0
SEQEND
0
POLYLINE
8
L6D0_METAL1
70
1
40
0
41
0
66
1
0
VERTEX
8
L6D0_METAL1
10
20.94
20
-0.38
0
VERTEX
8
L6D0_METAL1
10
20.94
20
0.38
0
VERTEX
8
L6D0_METAL1
10
21.3
20
0.38
0
VERTEX
8
L6D0_METAL1
10
21.3
20
-0.38
0
SEQEND
0
POLYLINE
8
L6D0_METAL1
70
1
40
0
41
0
66
1
0
SEQEND
0
POLYLINE
8
L6D0_METAL1
70
1
40
0
41
0
66
1
0
SEQEND
0
POLYLINE
8
L6D0_METAL1
70
1
40
0
41
0
66
1
0
SEQEND
0
POLYLINE
8
L6D0_METAL1
70
1
40
0
41
0
66
1
0
SEQEND
0
POLYLINE
8
L6D0_METAL1
70
1
40
0
41
0
66
1
0
VERTEX
8
L6D0_METAL1
10
21.74
20
-0.38
0
VERTEX
8
L6D0_METAL1
10
21.74
20
0.38
0
VERTEX
8
L6D0_METAL1
10
22.1
20
0.38
0
VERTEX
8
L6D0_METAL1
10
22.1
20
-0.38
0
SEQEND
0
POLYLINE
8
L6D0_METAL1
70
1
40
0
41
0
66
1
0
VERTEX
8
L6D0_METAL1
10
21.74
20
-0.38
0
VERTEX
8
L6D0_METAL1
10
21.74
20
0.38
0
VERTEX
8
L6D0_METAL1
10
22.1
20
0.38
0
VERTEX
8
L6D0_METAL1
10
22.1
20
-0.38
0
SEQEND
0
POLYLINE
8
L6D0_METAL1
70
1
40
0
41
0
66
1
0
SEQEND
0
POLYLINE
8
L6D0_METAL1
70
1
40
0
41
0
66
1
0
SEQEND
0
POLYLINE
8
L6D0_METAL1
70
1
40
0
41
0
66
1
0
SEQEND
0
POLYLINE
8
L6D0_METAL1
70
1
40
0
41
0
66
1
0
SEQEND
0
POLYLINE
8
L6D0_METAL1
70
1
40
0
41
0
66
1
0
VERTEX
8
L6D0_METAL1
10
20.14
20
2.42
0
VERTEX
8
L6D0_METAL1
10
20.14
20
3.18
0
VERTEX
8
L6D0_METAL1
10
20.5
20
3.18
0
VERTEX
8
L6D0_METAL1
10
20.5
20
2.42
0
SEQEND
0
POLYLINE
8
L6D0_METAL1
70
1
40
0
41
0
66
1
0
VERTEX
8
L6D0_METAL1
10
20.14
20
2.42
0
VERTEX
8
L6D0_METAL1
10
20.14
20
3.18
0
VERTEX
8
L6D0_METAL1
10
20.5
20
3.18
0
VERTEX
8
L6D0_METAL1
10
20.5
20
2.42
0
SEQEND
0
POLYLINE
8
L6D0_METAL1
70
1
40
0
41
0
66
1
0
SEQEND
0
POLYLINE
8
L6D0_METAL1
70
1
40
0
41
0
66
1
0
SEQEND
0
POLYLINE
8
L6D0_METAL1
70
1
40
0
41
0
66
1
0
SEQEND
0
POLYLINE
8
L6D0_METAL1
70
1
40
0
41
0
66
1
0
SEQEND
0
POLYLINE
8
L6D0_METAL1
70
1
40
0
41
0
66
1
0
VERTEX
8
L6D0_METAL1
10
20.94
20
2.42
0
VERTEX
8
L6D0_METAL1
10
20.94
20
3.18
0
VERTEX
8
L6D0_METAL1
10
21.3
20
3.18
0
VERTEX
8
L6D0_METAL1
10
21.3
20
2.42
0
SEQEND
0
POLYLINE
8
L6D0_METAL1
70
1
40
0
41
0
66
1
0
VERTEX
8
L6D0_METAL1
10
20.94
20
2.42
0
VERTEX
8
L6D0_METAL1
10
20.94
20
3.18
0
VERTEX
8
L6D0_METAL1
10
21.3
20
3.18
0
VERTEX
8
L6D0_METAL1
10
21.3
20
2.42
0
SEQEND
0
POLYLINE
8
L6D0_METAL1
70
1
40
0
41
0
66
1
0
SEQEND
0
POLYLINE
8
L6D0_METAL1
70
1
40
0
41
0
66
1
0
SEQEND
0
POLYLINE
8
L6D0_METAL1
70
1
40
0
41
0
66
1
0
SEQEND
0
POLYLINE
8
L6D0_METAL1
70
1
40
0
41
0
66
1
0
SEQEND
0
POLYLINE
8
L6D0_METAL1
70
1
40
0
41
0
66
1
0
VERTEX
8
L6D0_METAL1
10
21.74
20
2.42
0
VERTEX
8
L6D0_METAL1
10
21.74
20
3.18
0
VERTEX
8
L6D0_METAL1
10
22.1
20
3.18
0
VERTEX
8
L6D0_METAL1
10
22.1
20
2.42
0
SEQEND
0
POLYLINE
8
L6D0_METAL1
70
1
40
0
41
0
66
1
0
VERTEX
8
L6D0_METAL1
10
21.74
20
2.42
0
VERTEX
8
L6D0_METAL1
10
21.74
20
3.18
0
VERTEX
8
L6D0_METAL1
10
22.1
20
3.18
0
VERTEX
8
L6D0_METAL1
10
22.1
20
2.42
0
SEQEND
0
POLYLINE
8
L6D0_METAL1
70
1
40
0
41
0
66
1
0
SEQEND
0
POLYLINE
8
L6D0_METAL1
70
1
40
0
41
0
66
1
0
SEQEND
0
POLYLINE
8
L6D0_METAL1
70
1
40
0
41
0
66
1
0
SEQEND
0
POLYLINE
8
L6D0_METAL1
70
1
40
0
41
0
66
1
0
SEQEND
0
POLYLINE
8
L6D0_METAL1
70
1
40
0
41
0
66
1
0
VERTEX
8
L6D0_METAL1
10
20.32
20
0.82
0
VERTEX
8
L6D0_METAL1
10
20.32
20
1.18
0
VERTEX
8
L6D0_METAL1
10
21.7
20
1.18
0
VERTEX
8
L6D0_METAL1
10
21.7
20
0.82
0
SEQEND
0
POLYLINE
8
L6D0_METAL1
70
1
40
0
41
0
66
1
0
VERTEX
8
L6D0_METAL1
10
20.32
20
0.82
0
VERTEX
8
L6D0_METAL1
10
20.32
20
1.18
0
VERTEX
8
L6D0_METAL1
10
21.7
20
1.18
0
VERTEX
8
L6D0_METAL1
10
21.7
20
0.82
0
SEQEND
0
POLYLINE
8
L6D0_METAL1
70
1
40
0
41
0
66
1
0
SEQEND
0
POLYLINE
8
L6D0_METAL1
70
1
40
0
41
0
66
1
0
SEQEND
0
POLYLINE
8
L6D0_METAL1
70
1
40
0
41
0
66
1
0
SEQEND
0
POLYLINE
8
L6D0_METAL1
70
1
40
0
41
0
66
1
0
SEQEND
0
POLYLINE
8
L6D0_METAL1
70
1
40
0
41
0
66
1
0
VERTEX
8
L6D0_METAL1
10
-1.7
20
1.62
0
VERTEX
8
L6D0_METAL1
10
-1.7
20
1.98
0
VERTEX
8
L6D0_METAL1
10
-1.34
20
1.98
0
VERTEX
8
L6D0_METAL1
10
-1.34
20
1.62
0
SEQEND
0
POLYLINE
8
L6D0_METAL1
70
1
40
0
41
0
66
1
0
VERTEX
8
L6D0_METAL1
10
-1.7
20
1.62
0
VERTEX
8
L6D0_METAL1
10
-1.7
20
1.98
0
VERTEX
8
L6D0_METAL1
10
-1.34
20
1.98
0
VERTEX
8
L6D0_METAL1
10
-1.34
20
1.62
0
SEQEND
0
POLYLINE
8
L6D0_METAL1
70
1
40
0
41
0
66
1
0
SEQEND
0
POLYLINE
8
L6D0_METAL1
70
1
40
0
41
0
66
1
0
SEQEND
0
POLYLINE
8
L6D0_METAL1
70
1
40
0
41
0
66
1
0
SEQEND
0
POLYLINE
8
L6D0_METAL1
70
1
40
0
41
0
66
1
0
SEQEND
0
POLYLINE
8
L3D0_POLY
70
1
40
0
41
0
66
1
0
VERTEX
8
L3D0_POLY
10
20.595
20
-0.8
0
VERTEX
8
L3D0_POLY
10
20.595
20
0.8
0
VERTEX
8
L3D0_POLY
10
20.845
20
0.8
0
VERTEX
8
L3D0_POLY
10
20.845
20
-0.8
0
SEQEND
0
POLYLINE
8
L3D0_POLY
70
1
40
0
41
0
66
1
0
VERTEX
8
L3D0_POLY
10
20.595
20
-0.8
0
VERTEX
8
L3D0_POLY
10
20.595
20
0.8
0
VERTEX
8
L3D0_POLY
10
20.845
20
0.8
0
VERTEX
8
L3D0_POLY
10
20.845
20
-0.8
0
SEQEND
0
POLYLINE
8
L3D0_POLY
70
1
40
0
41
0
66
1
0
SEQEND
0
POLYLINE
8
L3D0_POLY
70
1
40
0
41
0
66
1
0
SEQEND
0
POLYLINE
8
L3D0_POLY
70
1
40
0
41
0
66
1
0
SEQEND
0
POLYLINE
8
L3D0_POLY
70
1
40
0
41
0
66
1
0
SEQEND
0
POLYLINE
8
L3D0_POLY
70
1
40
0
41
0
66
1
0
VERTEX
8
L3D0_POLY
10
20.595
20
2
0
VERTEX
8
L3D0_POLY
10
20.595
20
3.6
0
VERTEX
8
L3D0_POLY
10
20.845
20
3.6
0
VERTEX
8
L3D0_POLY
10
20.845
20
2
0
SEQEND
0
POLYLINE
8
L3D0_POLY
70
1
40
0
41
0
66
1
0
VERTEX
8
L3D0_POLY
10
20.595
20
2
0
VERTEX
8
L3D0_POLY
10
20.595
20
3.6
0
VERTEX
8
L3D0_POLY
10
20.845
20
3.6
0
VERTEX
8
L3D0_POLY
10
20.845
20
2
0
SEQEND
0
POLYLINE
8
L3D0_POLY
70
1
40
0
41
0
66
1
0
SEQEND
0
POLYLINE
8
L3D0_POLY
70
1
40
0
41
0
66
1
0
SEQEND
0
POLYLINE
8
L3D0_POLY
70
1
40
0
41
0
66
1
0
SEQEND
0
POLYLINE
8
L3D0_POLY
70
1
40
0
41
0
66
1
0
SEQEND
0
POLYLINE
8
L3D0_POLY
70
1
40
0
41
0
66
1
0
VERTEX
8
L3D0_POLY
10
21.395
20
-0.8
0
VERTEX
8
L3D0_POLY
10
21.395
20
0.8
0
VERTEX
8
L3D0_POLY
10
21.645
20
0.8
0
VERTEX
8
L3D0_POLY
10
21.645
20
-0.8
0
SEQEND
0
POLYLINE
8
L3D0_POLY
70
1
40
0
41
0
66
1
0
VERTEX
8
L3D0_POLY
10
21.395
20
-0.8
0
VERTEX
8
L3D0_POLY
10
21.395
20
0.8
0
VERTEX
8
L3D0_POLY
10
21.645
20
0.8
0
VERTEX
8
L3D0_POLY
10
21.645
20
-0.8
0
SEQEND
0
POLYLINE
8
L3D0_POLY
70
1
40
0
41
0
66
1
0
SEQEND
0
POLYLINE
8
L3D0_POLY
70
1
40
0
41
0
66
1
0
SEQEND
0
POLYLINE
8
L3D0_POLY
70
1
40
0
41
0
66
1
0
SEQEND
0
POLYLINE
8
L3D0_POLY
70
1
40
0
41
0
66
1
0
SEQEND
0
POLYLINE
8
L3D0_POLY
70
1
40
0
41
0
66
1
0
VERTEX
8
L3D0_POLY
10
21.395
20
2
0
VERTEX
8
L3D0_POLY
10
21.395
20
3.6
0
VERTEX
8
L3D0_POLY
10
21.645
20
3.6
0
VERTEX
8
L3D0_POLY
10
21.645
20
2
0
SEQEND
0
POLYLINE
8
L3D0_POLY
70
1
40
0
41
0
66
1
0
VERTEX
8
L3D0_POLY
10
21.395
20
2
0
VERTEX
8
L3D0_POLY
10
21.395
20
3.6
0
VERTEX
8
L3D0_POLY
10
21.645
20
3.6
0
VERTEX
8
L3D0_POLY
10
21.645
20
2
0
SEQEND
0
POLYLINE
8
L3D0_POLY
70
1
40
0
41
0
66
1
0
SEQEND
0
POLYLINE
8
L3D0_POLY
70
1
40
0
41
0
66
1
0
SEQEND
0
POLYLINE
8
L3D0_POLY
70
1
40
0
41
0
66
1
0
SEQEND
0
POLYLINE
8
L3D0_POLY
70
1
40
0
41
0
66
1
0
SEQEND
0
POLYLINE
8
L3D0_POLY
70
1
40
0
41
0
66
1
0
VERTEX
8
L3D0_POLY
10
21.34
20
0.82
0
VERTEX
8
L3D0_POLY
10
21.34
20
1.18
0
VERTEX
8
L3D0_POLY
10
21.7
20
1.18
0
VERTEX
8
L3D0_POLY
10
21.7
20
0.82
0
SEQEND
0
POLYLINE
8
L3D0_POLY
70
1
40
0
41
0
66
1
0
VERTEX
8
L3D0_POLY
10
21.34
20
0.82
0
VERTEX
8
L3D0_POLY
10
21.34
20
1.18
0
VERTEX
8
L3D0_POLY
10
21.7
20
1.18
0
VERTEX
8
L3D0_POLY
10
21.7
20
0.82
0
SEQEND
0
POLYLINE
8
L3D0_POLY
70
1
40
0
41
0
66
1
0
SEQEND
0
POLYLINE
8
L3D0_POLY
70
1
40
0
41
0
66
1
0
SEQEND
0
POLYLINE
8
L3D0_POLY
70
1
40
0
41
0
66
1
0
SEQEND
0
POLYLINE
8
L3D0_POLY
70
1
40
0
41
0
66
1
0
SEQEND
0
POLYLINE
8
L3D0_POLY
70
1
40
0
41
0
66
1
0
VERTEX
8
L3D0_POLY
10
20.595
20
-0.25
0
VERTEX
8
L3D0_POLY
10
20.595
20
2.25
0
VERTEX
8
L3D0_POLY
10
20.845
20
2.25
0
VERTEX
8
L3D0_POLY
10
20.845
20
-0.25
0
SEQEND
0
POLYLINE
8
L3D0_POLY
70
1
40
0
41
0
66
1
0
VERTEX
8
L3D0_POLY
10
20.595
20
-0.25
0
VERTEX
8
L3D0_POLY
10
20.595
20
2.25
0
VERTEX
8
L3D0_POLY
10
20.845
20
2.25
0
VERTEX
8
L3D0_POLY
10
20.845
20
-0.25
0
SEQEND
0
POLYLINE
8
L3D0_POLY
70
1
40
0
41
0
66
1
0
SEQEND
0
POLYLINE
8
L3D0_POLY
70
1
40
0
41
0
66
1
0
SEQEND
0
POLYLINE
8
L3D0_POLY
70
1
40
0
41
0
66
1
0
SEQEND
0
POLYLINE
8
L3D0_POLY
70
1
40
0
41
0
66
1
0
SEQEND
0
POLYLINE
8
L3D0_POLY
70
1
40
0
41
0
66
1
0
VERTEX
8
L3D0_POLY
10
21.395
20
-0.25
0
VERTEX
8
L3D0_POLY
10
21.395
20
2.25
0
VERTEX
8
L3D0_POLY
10
21.645
20
2.25
0
VERTEX
8
L3D0_POLY
10
21.645
20
-0.25
0
SEQEND
0
POLYLINE
8
L3D0_POLY
70
1
40
0
41
0
66
1
0
VERTEX
8
L3D0_POLY
10
21.395
20
-0.25
0
VERTEX
8
L3D0_POLY
10
21.395
20
2.25
0
VERTEX
8
L3D0_POLY
10
21.645
20
2.25
0
VERTEX
8
L3D0_POLY
10
21.645
20
-0.25
0
SEQEND
0
POLYLINE
8
L3D0_POLY
70
1
40
0
41
0
66
1
0
SEQEND
0
POLYLINE
8
L3D0_POLY
70
1
40
0
41
0
66
1
0
SEQEND
0
POLYLINE
8
L3D0_POLY
70
1
40
0
41
0
66
1
0
SEQEND
0
POLYLINE
8
L3D0_POLY
70
1
40
0
41
0
66
1
0
SEQEND
0
POLYLINE
8
L3D0_POLY
70
1
40
0
41
0
66
1
0
VERTEX
8
L3D0_POLY
10
19.42
20
1.62
0
VERTEX
8
L3D0_POLY
10
19.42
20
1.98
0
VERTEX
8
L3D0_POLY
10
20.72
20
1.98
0
VERTEX
8
L3D0_POLY
10
20.72
20
1.62
0
SEQEND
0
POLYLINE
8
L3D0_POLY
70
1
40
0
41
0
66
1
0
VERTEX
8
L3D0_POLY
10
19.42
20
1.62
0
VERTEX
8
L3D0_POLY
10
19.42
20
1.98
0
VERTEX
8
L3D0_POLY
10
20.72
20
1.98
0
VERTEX
8
L3D0_POLY
10
20.72
20
1.62
0
SEQEND
0
POLYLINE
8
L3D0_POLY
70
1
40
0
41
0
66
1
0
SEQEND
0
POLYLINE
8
L3D0_POLY
70
1
40
0
41
0
66
1
0
SEQEND
0
POLYLINE
8
L3D0_POLY
70
1
40
0
41
0
66
1
0
SEQEND
0
POLYLINE
8
L3D0_POLY
70
1
40
0
41
0
66
1
0
SEQEND
0
POLYLINE
8
L8D0_METAL2
70
1
40
0
41
0
66
1
0
VERTEX
8
L8D0_METAL2
10
19.72
20
-0.45
0
VERTEX
8
L8D0_METAL2
10
19.72
20
0.45
0
VERTEX
8
L8D0_METAL2
10
22.52
20
0.45
0
VERTEX
8
L8D0_METAL2
10
22.52
20
-0.45
0
SEQEND
0
POLYLINE
8
L8D0_METAL2
70
1
40
0
41
0
66
1
0
VERTEX
8
L8D0_METAL2
10
19.72
20
-0.45
0
VERTEX
8
L8D0_METAL2
10
19.72
20
0.45
0
VERTEX
8
L8D0_METAL2
10
22.52
20
0.45
0
VERTEX
8
L8D0_METAL2
10
22.52
20
-0.45
0
SEQEND
0
POLYLINE
8
L8D0_METAL2
70
1
40
0
41
0
66
1
0
SEQEND
0
POLYLINE
8
L8D0_METAL2
70
1
40
0
41
0
66
1
0
SEQEND
0
POLYLINE
8
L8D0_METAL2
70
1
40
0
41
0
66
1
0
SEQEND
0
POLYLINE
8
L8D0_METAL2
70
1
40
0
41
0
66
1
0
SEQEND
0
POLYLINE
8
L8D0_METAL2
70
1
40
0
41
0
66
1
0
VERTEX
8
L8D0_METAL2
10
19.72
20
2.35
0
VERTEX
8
L8D0_METAL2
10
19.72
20
3.25
0
VERTEX
8
L8D0_METAL2
10
22.52
20
3.25
0
VERTEX
8
L8D0_METAL2
10
22.52
20
2.35
0
SEQEND
0
POLYLINE
8
L8D0_METAL2
70
1
40
0
41
0
66
1
0
VERTEX
8
L8D0_METAL2
10
19.72
20
2.35
0
VERTEX
8
L8D0_METAL2
10
19.72
20
3.25
0
VERTEX
8
L8D0_METAL2
10
22.52
20
3.25
0
VERTEX
8
L8D0_METAL2
10
22.52
20
2.35
0
SEQEND
0
POLYLINE
8
L8D0_METAL2
70
1
40
0
41
0
66
1
0
SEQEND
0
POLYLINE
8
L8D0_METAL2
70
1
40
0
41
0
66
1
0
SEQEND
0
POLYLINE
8
L8D0_METAL2
70
1
40
0
41
0
66
1
0
SEQEND
0
POLYLINE
8
L8D0_METAL2
70
1
40
0
41
0
66
1
0
SEQEND
0
POLYLINE
8
L8D0_METAL2
70
1
40
0
41
0
66
1
0
VERTEX
8
L8D0_METAL2
10
-1.72
20
1.6
0
VERTEX
8
L8D0_METAL2
10
-1.72
20
2
0
VERTEX
8
L8D0_METAL2
10
23.16
20
2
0
VERTEX
8
L8D0_METAL2
10
23.16
20
1.6
0
SEQEND
0
POLYLINE
8
L8D0_METAL2
70
1
40
0
41
0
66
1
0
VERTEX
8
L8D0_METAL2
10
-1.72
20
1.6
0
VERTEX
8
L8D0_METAL2
10
-1.72
20
2
0
VERTEX
8
L8D0_METAL2
10
23.16
20
2
0
VERTEX
8
L8D0_METAL2
10
23.16
20
1.6
0
SEQEND
0
POLYLINE
8
L8D0_METAL2
70
1
40
0
41
0
66
1
0
SEQEND
0
POLYLINE
8
L8D0_METAL2
70
1
40
0
41
0
66
1
0
SEQEND
0
POLYLINE
8
L8D0_METAL2
70
1
40
0
41
0
66
1
0
SEQEND
0
POLYLINE
8
L8D0_METAL2
70
1
40
0
41
0
66
1
0
SEQEND
0
POLYLINE
8
L8D0_METAL2
70
1
40
0
41
0
66
1
0
VERTEX
8
L8D0_METAL2
10
24.36
20
1.6
0
VERTEX
8
L8D0_METAL2
10
24.36
20
2
0
VERTEX
8
L8D0_METAL2
10
24.76
20
2
0
VERTEX
8
L8D0_METAL2
10
24.76
20
1.6
0
SEQEND
0
POLYLINE
8
L8D0_METAL2
70
1
40
0
41
0
66
1
0
VERTEX
8
L8D0_METAL2
10
24.36
20
1.6
0
VERTEX
8
L8D0_METAL2
10
24.36
20
2
0
VERTEX
8
L8D0_METAL2
10
24.76
20
2
0
VERTEX
8
L8D0_METAL2
10
24.76
20
1.6
0
SEQEND
0
POLYLINE
8
L8D0_METAL2
70
1
40
0
41
0
66
1
0
SEQEND
0
POLYLINE
8
L8D0_METAL2
70
1
40
0
41
0
66
1
0
SEQEND
0
POLYLINE
8
L8D0_METAL2
70
1
40
0
41
0
66
1
0
SEQEND
0
POLYLINE
8
L8D0_METAL2
70
1
40
0
41
0
66
1
0
SEQEND
0
POLYLINE
8
L1D0_NWELL
70
1
40
0
41
0
66
1
0
VERTEX
8
L1D0_NWELL
10
19.72
20
1.8
0
VERTEX
8
L1D0_NWELL
10
19.72
20
3.8
0
VERTEX
8
L1D0_NWELL
10
22.52
20
3.8
0
VERTEX
8
L1D0_NWELL
10
22.52
20
1.8
0
SEQEND
0
POLYLINE
8
L5D0_POLYCONT
70
1
40
0
41
0
66
1
0
VERTEX
8
L5D0_POLYCONT
10
21.41
20
0.89
0
VERTEX
8
L5D0_POLYCONT
10
21.41
20
1.11
0
VERTEX
8
L5D0_POLYCONT
10
21.63
20
1.11
0
VERTEX
8
L5D0_POLYCONT
10
21.63
20
0.89
0
SEQEND
0
POLYLINE
8
L5D0_POLYCONT
70
1
40
0
41
0
66
1
0
VERTEX
8
L5D0_POLYCONT
10
21.41
20
0.89
0
VERTEX
8
L5D0_POLYCONT
10
21.41
20
1.11
0
VERTEX
8
L5D0_POLYCONT
10
21.63
20
1.11
0
VERTEX
8
L5D0_POLYCONT
10
21.63
20
0.89
0
SEQEND
0
POLYLINE
8
L5D0_POLYCONT
70
1
40
0
41
0
66
1
0
SEQEND
0
POLYLINE
8
L5D0_POLYCONT
70
1
40
0
41
0
66
1
0
SEQEND
0
POLYLINE
8
L5D0_POLYCONT
70
1
40
0
41
0
66
1
0
SEQEND
0
POLYLINE
8
L5D0_POLYCONT
70
1
40
0
41
0
66
1
0
SEQEND
0
POLYLINE
8
L5D0_POLYCONT
70
1
40
0
41
0
66
1
0
VERTEX
8
L5D0_POLYCONT
10
19.49
20
1.69
0
VERTEX
8
L5D0_POLYCONT
10
19.49
20
1.91
0
VERTEX
8
L5D0_POLYCONT
10
19.71
20
1.91
0
VERTEX
8
L5D0_POLYCONT
10
19.71
20
1.69
0
SEQEND
0
POLYLINE
8
L5D0_POLYCONT
70
1
40
0
41
0
66
1
0
VERTEX
8
L5D0_POLYCONT
10
19.49
20
1.69
0
VERTEX
8
L5D0_POLYCONT
10
19.49
20
1.91
0
VERTEX
8
L5D0_POLYCONT
10
19.71
20
1.91
0
VERTEX
8
L5D0_POLYCONT
10
19.71
20
1.69
0
SEQEND
0
POLYLINE
8
L5D0_POLYCONT
70
1
40
0
41
0
66
1
0
SEQEND
0
POLYLINE
8
L5D0_POLYCONT
70
1
40
0
41
0
66
1
0
SEQEND
0
POLYLINE
8
L5D0_POLYCONT
70
1
40
0
41
0
66
1
0
SEQEND
0
POLYLINE
8
L5D0_POLYCONT
70
1
40
0
41
0
66
1
0
SEQEND
0
POLYLINE
8
L7D0_VIA1
70
1
40
0
41
0
66
1
0
VERTEX
8
L7D0_VIA1
10
20.995
20
-0.325
0
VERTEX
8
L7D0_VIA1
10
20.995
20
-0.075
0
VERTEX
8
L7D0_VIA1
10
21.245
20
-0.075
0
VERTEX
8
L7D0_VIA1
10
21.245
20
-0.325
0
SEQEND
0
POLYLINE
8
L7D0_VIA1
70
1
40
0
41
0
66
1
0
VERTEX
8
L7D0_VIA1
10
20.995
20
-0.325
0
VERTEX
8
L7D0_VIA1
10
20.995
20
-0.075
0
VERTEX
8
L7D0_VIA1
10
21.245
20
-0.075
0
VERTEX
8
L7D0_VIA1
10
21.245
20
-0.325
0
SEQEND
0
POLYLINE
8
L7D0_VIA1
70
1
40
0
41
0
66
1
0
SEQEND
0
POLYLINE
8
L7D0_VIA1
70
1
40
0
41
0
66
1
0
SEQEND
0
POLYLINE
8
L7D0_VIA1
70
1
40
0
41
0
66
1
0
SEQEND
0
POLYLINE
8
L7D0_VIA1
70
1
40
0
41
0
66
1
0
SEQEND
0
POLYLINE
8
L7D0_VIA1
70
1
40
0
41
0
66
1
0
VERTEX
8
L7D0_VIA1
10
20.995
20
0.075
0
VERTEX
8
L7D0_VIA1
10
20.995
20
0.325
0
VERTEX
8
L7D0_VIA1
10
21.245
20
0.325
0
VERTEX
8
L7D0_VIA1
10
21.245
20
0.075
0
SEQEND
0
POLYLINE
8
L7D0_VIA1
70
1
40
0
41
0
66
1
0
VERTEX
8
L7D0_VIA1
10
20.995
20
0.075
0
VERTEX
8
L7D0_VIA1
10
20.995
20
0.325
0
VERTEX
8
L7D0_VIA1
10
21.245
20
0.325
0
VERTEX
8
L7D0_VIA1
10
21.245
20
0.075
0
SEQEND
0
POLYLINE
8
L7D0_VIA1
70
1
40
0
41
0
66
1
0
SEQEND
0
POLYLINE
8
L7D0_VIA1
70
1
40
0
41
0
66
1
0
SEQEND
0
POLYLINE
8
L7D0_VIA1
70
1
40
0
41
0
66
1
0
SEQEND
0
POLYLINE
8
L7D0_VIA1
70
1
40
0
41
0
66
1
0
SEQEND
0
POLYLINE
8
L7D0_VIA1
70
1
40
0
41
0
66
1
0
VERTEX
8
L7D0_VIA1
10
-1.645
20
1.675
0
VERTEX
8
L7D0_VIA1
10
-1.645
20
1.925
0
VERTEX
8
L7D0_VIA1
10
-1.395
20
1.925
0
VERTEX
8
L7D0_VIA1
10
-1.395
20
1.675
0
SEQEND
0
POLYLINE
8
L7D0_VIA1
70
1
40
0
41
0
66
1
0
VERTEX
8
L7D0_VIA1
10
-1.645
20
1.675
0
VERTEX
8
L7D0_VIA1
10
-1.645
20
1.925
0
VERTEX
8
L7D0_VIA1
10
-1.395
20
1.925
0
VERTEX
8
L7D0_VIA1
10
-1.395
20
1.675
0
SEQEND
0
POLYLINE
8
L7D0_VIA1
70
1
40
0
41
0
66
1
0
SEQEND
0
POLYLINE
8
L7D0_VIA1
70
1
40
0
41
0
66
1
0
SEQEND
0
POLYLINE
8
L7D0_VIA1
70
1
40
0
41
0
66
1
0
SEQEND
0
POLYLINE
8
L7D0_VIA1
70
1
40
0
41
0
66
1
0
SEQEND
0
POLYLINE
8
L7D0_VIA1
70
1
40
0
41
0
66
1
0
VERTEX
8
L7D0_VIA1
10
22.835
20
1.675
0
VERTEX
8
L7D0_VIA1
10
22.835
20
1.925
0
VERTEX
8
L7D0_VIA1
10
23.085
20
1.925
0
VERTEX
8
L7D0_VIA1
10
23.085
20
1.675
0
SEQEND
0
POLYLINE
8
L7D0_VIA1
70
1
40
0
41
0
66
1
0
VERTEX
8
L7D0_VIA1
10
22.835
20
1.675
0
VERTEX
8
L7D0_VIA1
10
22.835
20
1.925
0
VERTEX
8
L7D0_VIA1
10
23.085
20
1.925
0
VERTEX
8
L7D0_VIA1
10
23.085
20
1.675
0
SEQEND
0
POLYLINE
8
L7D0_VIA1
70
1
40
0
41
0
66
1
0
SEQEND
0
POLYLINE
8
L7D0_VIA1
70
1
40
0
41
0
66
1
0
SEQEND
0
POLYLINE
8
L7D0_VIA1
70
1
40
0
41
0
66
1
0
SEQEND
0
POLYLINE
8
L7D0_VIA1
70
1
40
0
41
0
66
1
0
SEQEND
0
POLYLINE
8
L7D0_VIA1
70
1
40
0
41
0
66
1
0
VERTEX
8
L7D0_VIA1
10
24.435
20
1.675
0
VERTEX
8
L7D0_VIA1
10
24.435
20
1.925
0
VERTEX
8
L7D0_VIA1
10
24.685
20
1.925
0
VERTEX
8
L7D0_VIA1
10
24.685
20
1.675
0
SEQEND
0
POLYLINE
8
L7D0_VIA1
70
1
40
0
41
0
66
1
0
VERTEX
8
L7D0_VIA1
10
24.435
20
1.675
0
VERTEX
8
L7D0_VIA1
10
24.435
20
1.925
0
VERTEX
8
L7D0_VIA1
10
24.685
20
1.925
0
VERTEX
8
L7D0_VIA1
10
24.685
20
1.675
0
SEQEND
0
POLYLINE
8
L7D0_VIA1
70
1
40
0
41
0
66
1
0
SEQEND
0
POLYLINE
8
L7D0_VIA1
70
1
40
0
41
0
66
1
0
SEQEND
0
POLYLINE
8
L7D0_VIA1
70
1
40
0
41
0
66
1
0
SEQEND
0
POLYLINE
8
L7D0_VIA1
70
1
40
0
41
0
66
1
0
SEQEND
0
POLYLINE
8
L7D0_VIA1
70
1
40
0
41
0
66
1
0
VERTEX
8
L7D0_VIA1
10
20.995
20
2.475
0
VERTEX
8
L7D0_VIA1
10
20.995
20
2.725
0
VERTEX
8
L7D0_VIA1
10
21.245
20
2.725
0
VERTEX
8
L7D0_VIA1
10
21.245
20
2.475
0
SEQEND
0
POLYLINE
8
L7D0_VIA1
70
1
40
0
41
0
66
1
0
VERTEX
8
L7D0_VIA1
10
20.995
20
2.475
0
VERTEX
8
L7D0_VIA1
10
20.995
20
2.725
0
VERTEX
8
L7D0_VIA1
10
21.245
20
2.725
0
VERTEX
8
L7D0_VIA1
10
21.245
20
2.475
0
SEQEND
0
POLYLINE
8
L7D0_VIA1
70
1
40
0
41
0
66
1
0
SEQEND
0
POLYLINE
8
L7D0_VIA1
70
1
40
0
41
0
66
1
0
SEQEND
0
POLYLINE
8
L7D0_VIA1
70
1
40
0
41
0
66
1
0
SEQEND
0
POLYLINE
8
L7D0_VIA1
70
1
40
0
41
0
66
1
0
SEQEND
0
POLYLINE
8
L7D0_VIA1
70
1
40
0
41
0
66
1
0
VERTEX
8
L7D0_VIA1
10
20.995
20
2.875
0
VERTEX
8
L7D0_VIA1
10
20.995
20
3.125
0
VERTEX
8
L7D0_VIA1
10
21.245
20
3.125
0
VERTEX
8
L7D0_VIA1
10
21.245
20
2.875
0
SEQEND
0
POLYLINE
8
L7D0_VIA1
70
1
40
0
41
0
66
1
0
VERTEX
8
L7D0_VIA1
10
20.995
20
2.875
0
VERTEX
8
L7D0_VIA1
10
20.995
20
3.125
0
VERTEX
8
L7D0_VIA1
10
21.245
20
3.125
0
VERTEX
8
L7D0_VIA1
10
21.245
20
2.875
0
SEQEND
0
POLYLINE
8
L7D0_VIA1
70
1
40
0
41
0
66
1
0
SEQEND
0
POLYLINE
8
L7D0_VIA1
70
1
40
0
41
0
66
1
0
SEQEND
0
POLYLINE
8
L7D0_VIA1
70
1
40
0
41
0
66
1
0
SEQEND
0
POLYLINE
8
L7D0_VIA1
70
1
40
0
41
0
66
1
0
SEQEND
0
ENDSEC
0
EOF
